<svg width="100" height="24" viewBox="0 0 100 24" fill="none" xmlns="http://www.w3.org/2000/svg">
<path d="M7.984 15.516H3.792L3.12 17.5H0.256L4.32 6.268H7.488L11.552 17.5H8.656L7.984 15.516ZM7.28 13.404L5.888 9.292L4.512 13.404H7.28ZM15.5249 10.06C15.8449 9.56933 16.2449 9.18533 16.7249 8.908C17.2049 8.62 17.7382 8.476 18.3249 8.476V11.372H17.5729C16.8902 11.372 16.3782 11.5213 16.0369 11.82C15.6955 12.108 15.5249 12.62 15.5249 13.356V17.5H12.7889V8.572H15.5249V10.06ZM24.6086 15.18V17.5H23.2166C22.2246 17.5 21.4513 17.26 20.8966 16.78C20.342 16.2893 20.0646 15.4947 20.0646 14.396V10.844H18.9766V8.572H20.0646V6.396H22.8006V8.572H24.5926V10.844H22.8006V14.428C22.8006 14.6947 22.8646 14.8867 22.9926 15.004C23.1206 15.1213 23.334 15.18 23.6326 15.18H24.6086ZM34.5486 12.892C34.5486 13.148 34.5326 13.4147 34.5006 13.692H28.3086C28.3513 14.2467 28.5273 14.6733 28.8366 14.972C29.1566 15.26 29.546 15.404 30.0046 15.404C30.6873 15.404 31.162 15.116 31.4286 14.54H34.3406C34.1913 15.1267 33.9193 15.6547 33.5246 16.124C33.1406 16.5933 32.6553 16.9613 32.0686 17.228C31.482 17.4947 30.826 17.628 30.1006 17.628C29.226 17.628 28.4473 17.4413 27.7646 17.068C27.082 16.6947 26.5486 16.1613 26.1646 15.468C25.7806 14.7747 25.5886 13.964 25.5886 13.036C25.5886 12.108 25.7753 11.2973 26.1486 10.604C26.5326 9.91067 27.066 9.37733 27.7486 9.004C28.4313 8.63067 29.2153 8.444 30.1006 8.444C30.9646 8.444 31.7326 8.62533 32.4046 8.988C33.0766 9.35067 33.5993 9.868 33.9726 10.54C34.3566 11.212 34.5486 11.996 34.5486 12.892ZM31.7486 12.172C31.7486 11.7027 31.5886 11.3293 31.2686 11.052C30.9486 10.7747 30.5486 10.636 30.0686 10.636C29.61 10.636 29.2206 10.7693 28.9006 11.036C28.5913 11.3027 28.3993 11.6813 28.3246 12.172H31.7486ZM43.5906 6.268C44.7746 6.268 45.8093 6.50267 46.6946 6.972C47.58 7.44133 48.2626 8.10267 48.7426 8.956C49.2333 9.79867 49.4786 10.7747 49.4786 11.884C49.4786 12.9827 49.2333 13.9587 48.7426 14.812C48.2626 15.6653 47.5746 16.3267 46.6786 16.796C45.7933 17.2653 44.764 17.5 43.5906 17.5H39.3826V6.268H43.5906ZM43.4146 15.132C44.4493 15.132 45.2546 14.8493 45.8306 14.284C46.4066 13.7187 46.6946 12.9187 46.6946 11.884C46.6946 10.8493 46.4066 10.044 45.8306 9.468C45.2546 8.892 44.4493 8.604 43.4146 8.604H42.1186V15.132H43.4146ZM59.4236 12.892C59.4236 13.148 59.4076 13.4147 59.3756 13.692H53.1836C53.2263 14.2467 53.4023 14.6733 53.7116 14.972C54.0316 15.26 54.421 15.404 54.8796 15.404C55.5623 15.404 56.037 15.116 56.3036 14.54H59.2156C59.0663 15.1267 58.7943 15.6547 58.3996 16.124C58.0156 16.5933 57.5303 16.9613 56.9436 17.228C56.357 17.4947 55.701 17.628 54.9756 17.628C54.101 17.628 53.3223 17.4413 52.6396 17.068C51.957 16.6947 51.4236 16.1613 51.0396 15.468C50.6556 14.7747 50.4636 13.964 50.4636 13.036C50.4636 12.108 50.6503 11.2973 51.0236 10.604C51.4076 9.91067 51.941 9.37733 52.6236 9.004C53.3063 8.63067 54.0903 8.444 54.9756 8.444C55.8396 8.444 56.6076 8.62533 57.2796 8.988C57.9516 9.35067 58.4743 9.868 58.8476 10.54C59.2316 11.212 59.4236 11.996 59.4236 12.892ZM56.6236 12.172C56.6236 11.7027 56.4636 11.3293 56.1436 11.052C55.8236 10.7747 55.4236 10.636 54.9436 10.636C54.485 10.636 54.0956 10.7693 53.7756 11.036C53.4663 11.3027 53.2743 11.6813 53.1996 12.172H56.6236ZM63.427 15.244H67.299V17.5H60.371V15.324L64.083 10.828H60.403V8.572H67.219V10.748L63.427 15.244Z" fill="#E6E6E6"/>
<path d="M0 19.1H67.811V19.9H0V19.1Z" fill="#E6E6E6"/>
<g clip-path="url(#clip0_8907_2505)">
<path d="M99.0308 4.34961H98.2778V21.3176H97.2998V23.9996H99.9998V21.3176H99.0308V4.34961Z" fill="#E6E6E6"/>
<path d="M97.2999 0V0.966H80.2959V1.713H97.2999V2.682H99.9999V0H97.2999Z" fill="#E6E6E6"/>
<path d="M76.975 19.653H77.728V2.682H78.7V0H76V2.682H76.975V19.653Z" fill="#E6E6E6"/>
<path d="M78.7 21.3184H76V24.0004H78.7V23.0344H95.707V22.2874H78.7V21.3184Z" fill="#E6E6E6"/>
<path d="M83.7304 3.50098L80.3164 11.109H82.5994L83.1004 9.85798H86.5024L87.0034 11.109H89.3074L85.9054 3.50098H83.7304ZM83.8264 8.05498L84.8044 5.63098L85.7704 8.05498H83.8234H83.8264Z" fill="#E6E6E6"/>
<path d="M95.6827 3.50098H88.6387V5.27098H91.0867V11.109H93.2257V5.27098H95.6827V3.50098Z" fill="#E6E6E6"/>
<path d="M81.1934 12.8906V20.4986H84.4544C87.1814 20.4986 88.4324 18.7376 88.4324 16.6406C88.4324 14.5436 87.1394 12.8906 84.4544 12.8906H81.1934ZM86.2994 16.6196C86.2994 17.6636 85.8224 18.6836 84.4514 18.6836H83.3204V14.6846H84.4514C85.7654 14.6846 86.2994 15.5756 86.2994 16.6196Z" fill="#E6E6E6"/>
<path d="M88.9777 20.4986H95.6827V18.6416H91.9327L95.2597 13.4996V12.8906H88.6387V14.6306H92.3797L88.9777 19.8266V20.4986Z" fill="#E6E6E6"/>
</g>
<defs>
<clipPath id="clip0_8907_2505">
<rect width="24" height="24" fill="white" transform="translate(76)"/>
</clipPath>
</defs>
</svg>
