<svg width="25" height="24" viewBox="0 0 25 24" fill="none" xmlns="http://www.w3.org/2000/svg">
<path d="M21.667 4.5H3.66699C3.46808 4.5 3.27731 4.57902 3.13666 4.71967C2.99601 4.86032 2.91699 5.05109 2.91699 5.25V18C2.91699 18.3978 3.07503 18.7794 3.35633 19.0607C3.63764 19.342 4.01917 19.5 4.41699 19.5H20.917C21.3148 19.5 21.6963 19.342 21.9777 19.0607C22.259 18.7794 22.417 18.3978 22.417 18V5.25C22.417 5.05109 22.338 4.86032 22.1973 4.71967C22.0567 4.57902 21.8659 4.5 21.667 4.5ZM20.917 18H4.41699V6.95531L12.1598 14.0531C12.2982 14.1801 12.4792 14.2506 12.667 14.2506C12.8548 14.2506 13.0358 14.1801 13.1742 14.0531L20.917 6.95531V18Z" fill="#3968ED"/>
</svg>
