<svg width="24" height="24" viewBox="0 0 24 24" fill="none" xmlns="http://www.w3.org/2000/svg">
    <g clip-path="url(#clip0_2198_2279)">
        <mask id="mask0_2198_2279" style="mask-type:luminance" maskUnits="userSpaceOnUse" x="-5"
            y="-5" width="34" height="34">
            <path d="M-4.7998 -4.79971H28.8002V28.8003H-4.7998V-4.79971Z" fill="white" />
        </mask>
        <g mask="url(#mask0_2198_2279)">
            <path
                d="M24 12C24 5.37259 18.6274 -1.90735e-06 12 -1.90735e-06C5.37259 -1.90735e-06 0 5.37259 0 12C0 17.6278 3.87432 22.3499 9.10109 23.6466V15.667H6.62659V12H9.10109V10.4199C9.10109 6.33547 10.9495 4.44235 14.9594 4.44235C15.7196 4.44235 17.0314 4.59139 17.568 4.74048V8.06467C17.2848 8.03486 16.7929 8.01993 16.1817 8.01993C14.214 8.01993 13.4538 8.76528 13.4538 10.7031V12H17.3734L16.7001 15.667H13.4538V23.9121C19.3955 23.1945 24 18.1353 24 12Z"
                fill="#E6E6E6" />
        </g>
    </g>
    <defs>
        <clipPath id="clip0_2198_2279">
            <rect width="24" height="24" fill="white" />
        </clipPath>
    </defs>
</svg>