<svg width="40" height="40" viewBox="0 0 40 40" fill="none" xmlns="http://www.w3.org/2000/svg">
<path d="M8.23248 15.5173C8.00027 15.2851 7.81607 15.0095 7.6904 14.7062C7.56472 14.4028 7.50004 14.0777 7.50004 13.7493C7.50004 13.421 7.56472 13.0958 7.6904 12.7925C7.81607 12.4891 8.00027 12.2135 8.23248 11.9813L18.2325 1.98134C18.7014 1.51245 19.3373 1.24902 20.0004 1.24902C20.6636 1.24902 21.2995 1.51245 21.7684 1.98134C22.2373 2.45023 22.5007 3.08619 22.5007 3.74931C22.5007 4.41243 22.2373 5.04838 21.7684 5.51728L11.7684 15.5173C11.5363 15.7495 11.2606 15.9337 10.9573 16.0594C10.6539 16.185 10.3288 16.2497 10.0004 16.2497C9.67209 16.2497 9.34696 16.185 9.0436 16.0594C8.74025 15.9337 8.46463 15.7495 8.23248 15.5173ZM38.0184 18.2313C37.7863 17.9991 37.5106 17.8149 37.2073 17.6893C36.9039 17.5636 36.5788 17.4989 36.2504 17.4989C35.9221 17.4989 35.597 17.5636 35.2936 17.6893C34.9903 17.8149 34.7146 17.9991 34.4825 18.2313L24.4825 28.2313C24.2503 28.4635 24.0661 28.7391 23.9404 29.0425C23.8147 29.3458 23.75 29.671 23.75 29.9993C23.75 30.3277 23.8147 30.6528 23.9404 30.9561C24.0661 31.2595 24.2503 31.5351 24.4825 31.7673C24.7146 31.9995 24.9903 32.1837 25.2936 32.3094C25.597 32.435 25.9221 32.4997 26.2504 32.4997C26.5788 32.4997 26.9039 32.435 27.2073 32.3094C27.5106 32.1837 27.7863 31.9995 28.0184 31.7673L38.0184 21.7673C38.2506 21.5351 38.4348 21.2595 38.5605 20.9561C38.6862 20.6528 38.7508 20.3277 38.7508 19.9993C38.7508 19.671 38.6862 19.3458 38.5605 19.0425C38.4348 18.7391 38.2506 18.4635 38.0184 18.2313ZM32.5325 15.7626L24.2372 7.46728C24.1791 7.40917 24.1102 7.36307 24.0343 7.33162C23.9584 7.30016 23.8771 7.28397 23.795 7.28397C23.7128 7.28397 23.6315 7.30016 23.5556 7.33162C23.4798 7.36307 23.4108 7.40917 23.3528 7.46728L13.7184 17.1017C13.6603 17.1597 13.6142 17.2286 13.5828 17.3045C13.5513 17.3804 13.5351 17.4617 13.5351 17.5438C13.5351 17.626 13.5513 17.7073 13.5828 17.7832C13.6142 17.8591 13.6603 17.928 13.7184 17.986L16.0934 20.3657L4.48248 31.9829C4.03343 32.4556 3.78678 33.0849 3.79513 33.7368C3.80347 34.3887 4.06615 35.0116 4.52716 35.4726C4.98816 35.9336 5.61101 36.1963 6.26292 36.2046C6.91482 36.213 7.5442 35.9663 8.01685 35.5173L19.634 23.9063L22.0137 26.286C22.0718 26.3441 22.1407 26.3902 22.2166 26.4217C22.2924 26.4531 22.3738 26.4693 22.4559 26.4693C22.538 26.4693 22.6194 26.4531 22.6953 26.4217C22.7711 26.3902 22.8401 26.3441 22.8981 26.286L32.5325 16.6517C32.5913 16.5935 32.638 16.5243 32.6699 16.448C32.7017 16.3717 32.7181 16.2898 32.7181 16.2071C32.7181 16.1244 32.7017 16.0426 32.6699 15.9662C32.638 15.8899 32.5913 15.8207 32.5325 15.7626Z" fill="#3968ED"/>
</svg>
