<svg width="56" height="56" viewBox="0 0 56 56" fill="none" xmlns="http://www.w3.org/2000/svg">
<rect width="56" height="56" rx="8" fill="#3968ED"/>
<path d="M32.5592 36.4539C32.6576 36.6047 32.7134 36.7794 32.7207 36.9594C32.7281 37.1394 32.6866 37.318 32.6009 37.4764C32.5151 37.6348 32.3881 37.767 32.2333 37.8592C32.0786 37.9514 31.9018 38.0001 31.7217 38.0001H13.2792C13.099 38.0001 12.9223 37.9514 12.7675 37.8592C12.6128 37.767 12.4858 37.6348 12.4 37.4764C12.3142 37.318 12.2728 37.1394 12.2801 36.9594C12.2875 36.7794 12.3433 36.6047 12.4417 36.4539C13.8493 34.2872 15.9198 32.6337 18.3442 31.7401C17.0039 30.8479 15.9864 29.548 15.442 28.0327C14.8977 26.5174 14.8555 24.8671 15.3215 23.326C15.7876 21.7848 16.7373 20.4346 18.0301 19.4749C19.323 18.5152 20.8903 17.9971 22.5004 17.9971C24.1105 17.9971 25.6779 18.5152 26.9707 19.4749C28.2635 20.4346 29.2132 21.7848 29.6793 23.326C30.1454 24.8671 30.1031 26.5174 29.5588 28.0327C29.0145 29.548 27.9969 30.8479 26.6567 31.7401C29.0811 32.6337 31.1515 34.2872 32.5592 36.4539ZM43.5479 36.4351C42.1399 34.2775 40.0741 32.6311 37.6567 31.7401C39.2389 30.6743 40.3555 29.0456 40.7792 27.1855C41.203 25.3255 40.9019 23.3738 39.9374 21.7279C38.9729 20.082 37.4175 18.8654 35.5876 18.3259C33.7578 17.7864 31.7911 17.9645 30.0879 18.8239C30.0228 18.8575 29.9659 18.905 29.9211 18.9631C29.8764 19.0212 29.845 19.0884 29.8292 19.1599C29.8133 19.2315 29.8134 19.3057 29.8294 19.3772C29.8453 19.4487 29.8769 19.5159 29.9217 19.5739C31.1881 21.1536 31.9155 23.0974 31.9971 25.1205C32.0788 27.1436 31.5105 29.1397 30.3754 30.8164C30.3021 30.9259 30.275 31.0601 30.3 31.1895C30.3251 31.319 30.4002 31.4333 30.5092 31.5076C31.989 32.5405 33.2559 33.8489 34.2404 35.3614C34.6375 35.9694 34.7997 36.7012 34.6967 37.4201C34.6851 37.4916 34.6892 37.5648 34.7087 37.6346C34.7281 37.7044 34.7625 37.7691 34.8095 37.8242C34.8565 37.8794 34.9149 37.9237 34.9806 37.9541C35.0464 37.9844 35.118 38.0001 35.1904 38.0001H42.7279C42.9481 38.0002 43.1622 37.9276 43.3369 37.7935C43.5116 37.6595 43.6372 37.4716 43.6942 37.2589C43.7289 37.119 43.7339 36.9733 43.7087 36.8314C43.6835 36.6895 43.6287 36.5545 43.5479 36.4351Z" fill="white"/>
</svg>
