<svg width="56" height="56" viewBox="0 0 56 56" fill="none" xmlns="http://www.w3.org/2000/svg">
<rect width="56" height="56" rx="8" fill="#3968ED"/>
<path d="M41.9288 28.625L37.9288 18.625C37.854 18.4401 37.7255 18.2817 37.56 18.1704C37.3945 18.059 37.1995 17.9997 37 18C36.9272 18.0011 36.8547 18.0099 36.7838 18.0262L29 19.75V17C29 16.7348 28.8947 16.4804 28.7071 16.2929C28.5196 16.1054 28.2652 16 28 16C27.7348 16 27.4804 16.1054 27.2929 16.2929C27.1054 16.4804 27 16.7348 27 17V20.1975L18.7838 22.0262C18.6254 22.0608 18.4777 22.1334 18.3536 22.2377C18.2295 22.342 18.1326 22.4749 18.0713 22.625L14.0713 32.625C14.0234 32.7442 13.9992 32.8716 14 33C14 35.9137 17.0675 37 19 37C20.9325 37 24 35.9137 24 33C24.0008 32.8716 23.9766 32.7442 23.9288 32.625L20.365 23.7212L27 22.25V38H25C24.7348 38 24.4804 38.1054 24.2929 38.2929C24.1054 38.4804 24 38.7348 24 39C24 39.2652 24.1054 39.5196 24.2929 39.7071C24.4804 39.8946 24.7348 40 25 40H31C31.2652 40 31.5196 39.8946 31.7071 39.7071C31.8947 39.5196 32 39.2652 32 39C32 38.7348 31.8947 38.4804 31.7071 38.2929C31.5196 38.1054 31.2652 38 31 38H29V21.8025L35.375 20.3875L32.0713 28.625C32.0234 28.7442 31.9992 28.8716 32 29C32 31.9137 35.0675 33 37 33C38.9325 33 42 31.9137 42 29C42.0008 28.8716 41.9766 28.7442 41.9288 28.625ZM21.9288 33H16.0775L19 25.6925L21.9288 33ZM34.0838 29L37 21.6925L39.9225 29H34.0838Z" fill="white"/>
</svg>
