<svg width="56" height="56" viewBox="0 0 56 56" fill="none" xmlns="http://www.w3.org/2000/svg">
<rect width="56" height="56" rx="8" fill="#3968ED"/>
<path d="M38.7312 27.6826L24.7312 42.6826C24.5828 42.8409 24.387 42.9467 24.1732 42.984C23.9595 43.0213 23.7394 42.988 23.5462 42.8892C23.353 42.7904 23.1972 42.6315 23.1023 42.4364C23.0073 42.2413 22.9784 42.0206 23.0199 41.8076L24.8524 32.6414L17.6487 29.9364C17.494 29.8785 17.356 29.7832 17.2471 29.659C17.1382 29.5348 17.0618 29.3855 17.0246 29.2246C16.9875 29.0637 16.9908 28.896 17.0343 28.7366C17.0777 28.5773 17.16 28.4312 17.2737 28.3114L31.2737 13.3114C31.422 13.153 31.6179 13.0472 31.8316 13.01C32.0454 12.9727 32.2655 13.006 32.4586 13.1048C32.6518 13.2035 32.8076 13.3625 32.9026 13.5576C32.9975 13.7527 33.0264 13.9734 32.9849 14.1864L31.1474 23.3626L38.3512 26.0639C38.5047 26.1221 38.6416 26.2173 38.7496 26.341C38.8577 26.4647 38.9336 26.6131 38.9707 26.7732C39.0077 26.9332 39.0048 27.0998 38.9622 27.2585C38.9195 27.4171 38.8385 27.5628 38.7262 27.6826H38.7312Z" fill="white"/>
</svg>
