<svg width="57" height="56" viewBox="0 0 57 56" fill="none" xmlns="http://www.w3.org/2000/svg">
    <path d="M28.333 28L49.333 7" stroke="#3968ED" stroke-width="3.5" stroke-linecap="round"
        stroke-linejoin="round" />
    <path
        d="M43.1815 13.151C39.4619 9.44015 34.485 7.26054 29.2354 7.04333C23.9858 6.82613 18.8458 8.58717 14.8324 11.9781C10.8189 15.3689 8.22437 20.1427 7.56195 25.3549C6.89953 30.567 8.21751 35.838 11.2552 40.125C14.2928 44.412 18.8288 47.4028 23.9659 48.5057C29.103 49.6085 34.4669 48.7431 38.9964 46.0807C43.526 43.4182 46.8914 39.1527 48.4267 34.1279C49.962 29.1031 49.5554 23.6851 47.2874 18.9457"
        stroke="#3968ED" stroke-width="3.5" stroke-linecap="round" stroke-linejoin="round" />
    <path
        d="M35.7561 20.5758C34.0191 18.8409 31.7292 17.7696 29.2843 17.5478C26.8395 17.3261 24.3942 17.968 22.3735 19.362C20.3528 20.7561 18.8844 22.8141 18.2235 25.1784C17.5627 27.5426 17.7512 30.0638 18.7562 32.3035C19.7612 34.5433 21.5192 36.3601 23.7247 37.4382C25.9303 38.5163 28.4438 38.7875 30.8285 38.2048C33.2133 37.622 35.3184 36.222 36.7781 34.2483C38.2378 32.2745 38.9598 29.8516 38.8186 27.4008"
        stroke="#3968ED" stroke-width="3.5" stroke-linecap="round" stroke-linejoin="round" />
</svg>