<svg width="56" height="56" viewBox="0 0 56 56" fill="none" xmlns="http://www.w3.org/2000/svg">
    <path
        d="M43.9679 46.6648C42.1359 46.6648 40.5642 47.8024 39.9134 49.4098H36.093V52.7038H39.9134C40.5642 54.3113 42.1359 55.4488 43.9679 55.4488C46.3807 55.4488 48.3428 53.479 48.3428 51.0568C48.3428 48.6346 46.3807 46.6648 43.9679 46.6648Z"
        fill="#3968ED" />
    <path
        d="M51.624 37.3319C50.9043 37.3319 50.2262 37.5075 49.6268 37.8183L45.5647 34.42C45.2694 34.1729 44.8987 34.0379 44.5148 34.0379H36.093V37.3319H43.9209L47.4831 40.3118C47.3322 40.7554 47.2502 41.2298 47.2502 41.7239C47.2502 44.146 49.2123 46.1158 51.6251 46.1158C54.0378 46.1158 56 44.146 56 41.7239C56 39.3017 54.0378 37.3319 51.6251 37.3319H51.624Z"
        fill="#3968ED" />
    <path
        d="M51.624 23.6069C49.792 23.6069 48.2203 24.7444 47.5695 26.3519H36.093V29.6459H47.5695C48.2203 31.2534 49.792 32.3909 51.624 32.3909C54.0368 32.3909 55.9989 30.4211 55.9989 27.9989C55.9989 25.5767 54.0368 23.6069 51.624 23.6069Z"
        fill="#3968ED" />
    <path
        d="M45.5647 21.5778L49.6268 18.1795C50.2262 18.4892 50.9043 18.6659 51.624 18.6659C54.0368 18.6659 55.9989 16.6961 55.9989 14.2739C55.9989 11.8518 54.0368 9.88197 51.624 9.88197C49.2112 9.88197 47.2491 11.8518 47.2491 14.2739C47.2491 14.768 47.3322 15.2424 47.482 15.686L43.9198 18.6659H36.0919V21.9599H44.5137C44.8976 21.9599 45.2694 21.8249 45.5636 21.5778H45.5647Z"
        fill="#3968ED" />
    <path
        d="M43.9679 9.33297C46.3807 9.33297 48.3428 7.36316 48.3428 4.94098C48.3428 2.5188 46.3807 0.548998 43.9679 0.548998C42.1359 0.548998 40.5642 1.68652 39.9134 3.29399H36.093V6.58798H39.9134C40.5642 8.19544 42.1359 9.33297 43.9679 9.33297Z"
        fill="#3968ED" />
    <path
        d="M16.4059 27.9989C16.4059 34.3563 21.5574 39.5279 27.8901 39.5279C29.651 39.5279 31.3189 39.1282 32.8119 38.4145V17.5844C31.3189 16.8707 29.651 16.4699 27.8901 16.4699C21.5574 16.4699 16.4059 21.6415 16.4059 27.9989Z"
        fill="#3968ED" />
    <path
        d="M31.1713 0H24.6089C23.7033 0 22.9683 0.737853 22.9683 1.64699V3.79138C19.8895 4.42053 16.944 5.6459 14.3191 7.38842L12.8087 5.87208C12.1677 5.22866 11.1298 5.22866 10.4889 5.87208L5.84817 10.5309C5.20724 11.1743 5.20724 12.2163 5.84817 12.8597L7.35861 14.3761C5.62286 17.0102 4.40226 19.9682 3.77555 23.059H1.64059C0.734986 23.059 0 23.7969 0 24.706V31.294C0 32.2031 0.734986 32.941 1.64059 32.941H3.77555C4.40226 36.0318 5.62286 38.9887 7.35861 41.6239L5.84817 43.1403C5.54083 43.4488 5.36802 43.8682 5.36802 44.3052C5.36802 44.7422 5.54083 45.1606 5.84817 45.4702L10.4889 50.129C11.1298 50.7724 12.1677 50.7724 12.8087 50.129L14.3191 48.6127C16.9429 50.3552 19.8895 51.5795 22.9683 52.2097V54.353C22.9683 55.2621 23.7033 56 24.6089 56H31.1713C32.0769 56 32.8119 55.2621 32.8119 54.353V41.9764C31.2719 42.5243 29.6149 42.824 27.8901 42.824C19.7484 42.824 13.1247 36.1746 13.1247 28.0011C13.1247 19.8276 19.7484 13.1781 27.8901 13.1781C29.6149 13.1781 31.2719 13.4779 32.8119 14.0258V1.64699C32.8119 0.737853 32.0769 0 31.1713 0Z"
        fill="#3968ED" />
</svg>