<svg width="56" height="56" viewBox="0 0 56 56" fill="none" xmlns="http://www.w3.org/2000/svg">
<rect width="56" height="56" rx="8" fill="#3968ED"/>
<path d="M28 15C25.4288 15 22.9154 15.7624 20.7776 17.1909C18.6398 18.6194 16.9735 20.6497 15.9896 23.0251C15.0056 25.4006 14.7482 28.0144 15.2498 30.5362C15.7514 33.0579 16.9895 35.3743 18.8076 37.1924C20.6257 39.0105 22.9421 40.2486 25.4638 40.7502C27.9856 41.2518 30.5995 40.9944 32.9749 40.0104C35.3503 39.0265 37.3807 37.3603 38.8091 35.2224C40.2376 33.0846 41 30.5712 41 28C40.9964 24.5533 39.6256 21.2488 37.1884 18.8116C34.7512 16.3744 31.4467 15.0036 28 15ZM33.7075 25.7075L26.7075 32.7075C26.6146 32.8005 26.5043 32.8742 26.3829 32.9246C26.2615 32.9749 26.1314 33.0008 26 33.0008C25.8686 33.0008 25.7385 32.9749 25.6171 32.9246C25.4957 32.8742 25.3854 32.8005 25.2925 32.7075L22.2925 29.7075C22.1049 29.5199 21.9994 29.2654 21.9994 29C21.9994 28.7346 22.1049 28.4801 22.2925 28.2925C22.4801 28.1049 22.7346 27.9994 23 27.9994C23.2654 27.9994 23.5199 28.1049 23.7075 28.2925L26 30.5863L32.2925 24.2925C32.3854 24.1996 32.4957 24.1259 32.6171 24.0756C32.7385 24.0253 32.8686 23.9994 33 23.9994C33.1314 23.9994 33.2615 24.0253 33.3829 24.0756C33.5043 24.1259 33.6146 24.1996 33.7075 24.2925C33.8004 24.3854 33.8741 24.4957 33.9244 24.6171C33.9747 24.7385 34.0006 24.8686 34.0006 25C34.0006 25.1314 33.9747 25.2615 33.9244 25.3829C33.8741 25.5043 33.8004 25.6146 33.7075 25.7075Z" fill="white"/>
</svg>
