<svg width="24" height="24" viewBox="0 0 24 24" fill="none" xmlns="http://www.w3.org/2000/svg">
<path d="M15.1987 12C15.1987 12.6328 15.011 13.2514 14.6594 13.7776C14.3079 14.3038 13.8081 14.7139 13.2235 14.9561C12.6388 15.1983 11.9955 15.2616 11.3748 15.1382C10.7541 15.0147 10.184 14.71 9.73648 14.2625C9.289 13.815 8.98426 13.2449 8.8608 12.6242C8.73734 12.0035 8.8007 11.3602 9.04288 10.7755C9.28506 10.1908 9.69517 9.69112 10.2214 9.33954C10.7475 8.98795 11.3662 8.8003 11.999 8.8003C12.8473 8.80127 13.6606 9.13869 14.2604 9.73853C14.8603 10.3384 15.1977 11.1517 15.1987 12ZM21.998 7.60042V16.3995C21.9963 17.8841 21.4058 19.3073 20.3561 20.3571C19.3064 21.4068 17.8831 21.9973 16.3986 21.999H7.59944C6.11489 21.9973 4.69163 21.4068 3.6419 20.3571C2.59216 19.3073 2.00168 17.8841 2 16.3995V7.60042C2.00168 6.11587 2.59216 4.69261 3.6419 3.64287C4.69163 2.59314 6.11489 2.00266 7.59944 2.00098H16.3986C17.8831 2.00266 19.3064 2.59314 20.3561 3.64287C21.4058 4.69261 21.9963 6.11587 21.998 7.60042ZM16.7985 12C16.7985 11.0507 16.517 10.1228 15.9897 9.33351C15.4623 8.54423 14.7127 7.92906 13.8357 7.5658C12.9587 7.20253 11.9937 7.10749 11.0627 7.29268C10.1316 7.47787 9.27645 7.93498 8.60523 8.6062C7.934 9.27743 7.47689 10.1326 7.2917 11.0636C7.10651 11.9947 7.20156 12.9597 7.56482 13.8367C7.92809 14.7137 8.54325 15.4633 9.33253 15.9906C10.1218 16.518 11.0497 16.7995 11.999 16.7995C13.2715 16.7981 14.4914 16.2919 15.3912 15.3922C16.291 14.4924 16.7971 13.2724 16.7985 12ZM18.3984 6.8005C18.3984 6.56318 18.328 6.3312 18.1961 6.13388C18.0643 5.93656 17.8769 5.78277 17.6577 5.69195C17.4384 5.60114 17.1971 5.57737 16.9644 5.62367C16.7316 5.66997 16.5178 5.78425 16.35 5.95205C16.1822 6.11986 16.068 6.33366 16.0217 6.56641C15.9754 6.79916 15.9991 7.04042 16.0899 7.25967C16.1808 7.47892 16.3345 7.66632 16.5319 7.79816C16.7292 7.93001 16.9612 8.00038 17.1985 8.00038C17.5167 8.00038 17.8219 7.87396 18.0469 7.64894C18.2719 7.42392 18.3984 7.11872 18.3984 6.8005Z" fill="white"/>
</svg>
