<svg width="24" height="24" viewBox="0 0 24 24" fill="none" xmlns="http://www.w3.org/2000/svg">
    <g clip-path="url(#clip0_2198_2270)">
        <path
            d="M12.0002 2.31916C15.1533 2.31916 15.5267 2.3312 16.7721 2.38802C17.9234 2.44056 18.5486 2.63289 18.9648 2.79461C19.4777 2.98391 19.9417 3.28576 20.3226 3.67797C20.7148 4.05888 21.0166 4.52284 21.2059 5.03575C21.3677 5.45186 21.56 6.07713 21.6125 7.22847C21.6693 8.4737 21.6814 8.84716 21.6814 12.0003C21.6814 15.1535 21.6693 15.5269 21.6125 16.7722C21.56 17.9236 21.3676 18.5488 21.2059 18.9649C21.0095 19.4742 20.7086 19.9367 20.3226 20.3227C19.9366 20.7087 19.4741 21.0096 18.9648 21.2061C18.5487 21.3678 17.9234 21.5602 16.7721 21.6127C15.5271 21.6695 15.1536 21.6815 12.0002 21.6815C8.84678 21.6815 8.47347 21.6695 7.22833 21.6127C6.07698 21.5601 5.45177 21.3677 5.03561 21.2061C4.5227 21.0168 4.05873 20.7149 3.67783 20.3227C3.28563 19.9418 2.98378 19.4778 2.79447 18.9649C2.63275 18.5488 2.44038 17.9236 2.38788 16.7722C2.33106 15.527 2.31902 15.1535 2.31902 12.0003C2.31902 8.84716 2.33106 8.4738 2.38788 7.22847C2.44042 6.07713 2.63275 5.45191 2.79447 5.03575C2.9838 4.52281 3.28568 4.05883 3.67792 3.67792C4.05883 3.28572 4.52279 2.98387 5.0357 2.79456C5.45181 2.63284 6.07708 2.44047 7.22842 2.38797C8.47366 2.33116 8.84711 2.31911 12.0003 2.31911M12.0003 0.191406C8.7932 0.191406 8.39092 0.205 7.13158 0.262469C5.87463 0.319844 5.01625 0.519437 4.26512 0.811375C3.47718 1.10789 2.76341 1.57271 2.17356 2.17342C1.57271 2.76323 1.10776 3.47701 0.811141 4.26498C0.519437 5.01616 0.319844 5.87453 0.262703 7.13148C0.205 8.39083 0.191406 8.79311 0.191406 12.0002C0.191406 15.2073 0.205 15.6096 0.262703 16.8689C0.320078 18.1259 0.519672 18.9842 0.811609 19.7354C1.10812 20.5233 1.57294 21.2371 2.17366 21.8269C2.7635 22.4277 3.47728 22.8925 4.26522 23.189C5.01639 23.4809 5.87477 23.6805 7.13167 23.7379C8.3912 23.7954 8.79334 23.809 12.0004 23.809C15.2074 23.809 15.6098 23.7954 16.8691 23.7379C18.1261 23.6805 18.9844 23.4809 19.7356 23.189C20.52 22.8856 21.2324 22.4217 21.8271 21.8269C22.4219 21.2322 22.8858 20.5198 23.1892 19.7354C23.4811 18.9842 23.6807 18.1258 23.7381 16.8689C23.7955 15.6094 23.8091 15.2072 23.8091 12.0002C23.8091 8.79316 23.7955 8.39083 23.7381 7.13148C23.6807 5.87453 23.4811 5.01616 23.1892 4.26503C22.8927 3.47709 22.4278 2.76331 21.8271 2.17347C21.2373 1.57264 20.5234 1.10772 19.7354 0.811141C18.9842 0.519437 18.1259 0.319844 16.8689 0.262703C15.6096 0.205 15.2073 0.191406 12.0002 0.191406H12.0003Z"
            fill="#E6E6E6" />
        <path
            d="M11.9995 5.93604C10.8002 5.93604 9.62778 6.29168 8.63056 6.958C7.63335 7.62432 6.85611 8.57138 6.39714 9.67943C5.93817 10.7875 5.81809 12.0067 6.05207 13.183C6.28605 14.3593 6.86359 15.4398 7.71165 16.2879C8.55971 17.136 9.64021 17.7135 10.8165 17.9475C11.9928 18.1815 13.2121 18.0614 14.3201 17.6024C15.4282 17.1434 16.3752 16.3662 17.0416 15.369C17.7079 14.3718 18.0635 13.1994 18.0635 12C18.0635 10.3918 17.4246 8.84935 16.2874 7.71213C15.1502 6.57492 13.6078 5.93604 11.9995 5.93604ZM11.9995 15.9363C11.221 15.9362 10.46 15.7054 9.81269 15.2729C9.16539 14.8403 8.66088 14.2256 8.36296 13.5063C8.06504 12.7871 7.9871 11.9956 8.13899 11.2321C8.29087 10.4685 8.66577 9.76715 9.21626 9.21666C9.76675 8.66618 10.4681 8.29129 11.2317 8.13942C11.9952 7.98754 12.7867 8.06549 13.5059 8.36342C14.2252 8.66134 14.8399 9.16586 15.2724 9.81317C15.705 10.4605 15.9358 11.2215 15.9358 12C15.9358 13.044 15.5211 14.0452 14.7829 14.7834C14.0447 15.5215 13.0435 15.9363 11.9995 15.9363Z"
            fill="#E6E6E6" />
        <path
            d="M18.3038 7.11336C19.0864 7.11336 19.7208 6.47893 19.7208 5.69633C19.7208 4.91372 19.0864 4.2793 18.3038 4.2793C17.5211 4.2793 16.8867 4.91372 16.8867 5.69633C16.8867 6.47893 17.5211 7.11336 18.3038 7.11336Z"
            fill="#E6E6E6" />
    </g>
    <defs>
        <clipPath id="clip0_2198_2270">
            <rect width="24" height="24" fill="white" />
        </clipPath>
    </defs>
</svg>