<svg width="24" height="24" viewBox="0 0 24 24" fill="none" xmlns="http://www.w3.org/2000/svg">
    <g clip-path="url(#clip0_2198_2274)">
        <path
            d="M5.58697 7.72119H0.768933C0.5551 7.72119 0.381836 7.89453 0.381836 8.10829V23.5866C0.381836 23.8004 0.5551 23.9737 0.768933 23.9737H5.58697C5.8008 23.9737 5.97407 23.8004 5.97407 23.5866V8.10829C5.97407 7.89453 5.8008 7.72119 5.58697 7.72119Z"
            fill="#E6E6E6" />
        <path
            d="M3.1793 0.0263672C1.42622 0.0263672 0 1.45104 0 3.20219C0 4.95411 1.42622 6.37932 3.1793 6.37932C4.93099 6.37932 6.35605 4.95403 6.35605 3.20219C6.35613 1.45104 4.93099 0.0263672 3.1793 0.0263672Z"
            fill="#E6E6E6" />
        <path
            d="M17.8412 7.33643C15.9062 7.33643 14.4757 8.1683 13.608 9.11351V8.10822C13.608 7.89446 13.4348 7.72112 13.2209 7.72112H8.60682C8.39299 7.72112 8.21973 7.89446 8.21973 8.10822V23.5865C8.21973 23.8003 8.39299 23.9736 8.60682 23.9736H13.4143C13.6282 23.9736 13.8014 23.8003 13.8014 23.5865V15.9283C13.8014 13.3477 14.5024 12.3424 16.3013 12.3424C18.2605 12.3424 18.4162 13.9541 18.4162 16.0611V23.5866C18.4162 23.8004 18.5894 23.9737 18.8033 23.9737H23.6126C23.8264 23.9737 23.9997 23.8004 23.9997 23.5866V15.0965C23.9997 11.2592 23.268 7.33643 17.8412 7.33643Z"
            fill="#E6E6E6" />
    </g>
    <defs>
        <clipPath id="clip0_2198_2274">
            <rect width="24" height="24" fill="white" />
        </clipPath>
    </defs>
</svg>