<svg width="120" height="83" viewBox="0 0 120 83" fill="none" xmlns="http://www.w3.org/2000/svg">
<g clip-path="url(#clip0_2152_3610)">
<g clip-path="url(#clip1_2152_3610)">
<path d="M90.8646 51.9096L87.9558 47.8391L82.5149 40.2213L80.0116 36.7173L77.5108 40.2189L80.014 43.723L82.9541 47.8391L85.8629 51.9096H80.8588L77.95 47.8391L77.5132 47.2271L75.0123 43.723L72.5115 40.2189L75.0123 36.7173L77.5132 33.2132L75.0123 29.7115L72.5115 26.2074L70.0106 22.7058L67.5098 19.2017L65.0089 15.7L62.5081 12.196L60.0072 8.69189L57.5064 12.196L55.0031 15.6976L52.5023 19.2017L50.0014 22.7034L47.5006 26.2074L44.9997 29.7115L42.4989 33.2132L44.9997 36.7149L47.5006 40.2189L44.9997 43.723L42.4989 47.2247L42.062 47.8367L39.1532 51.9072H34.1491L37.0579 47.8367L39.998 43.7206L42.4989 40.2189L39.998 36.7173L37.4972 40.2189L32.0562 47.8367L29.1474 51.9072L26.2385 55.98H36.2467L33.3379 60.0529H38.342L41.2508 55.98H51.259L52.5095 54.228L54.1679 51.9072L55.0127 50.7263L57.0767 47.8367L57.5136 47.2247L55.0127 43.723L52.5095 40.2189L55.0103 36.7173L57.5136 33.2132L60.0144 29.7115L62.5153 33.2132L65.0161 36.7173L67.5169 40.2189L65.0161 43.7206L62.5153 47.2247L62.9521 47.8367L65.0161 50.7263L65.8609 51.9072L67.5194 54.228L68.7698 55.98H78.778L81.6868 60.0529H86.6909L83.7821 55.98H93.7903L90.8814 51.9072L90.8646 51.9096ZM52.4927 47.2247L52.0558 47.8367L49.9918 50.7263L49.147 51.9072H44.1429L44.9877 50.7239L47.0517 47.8343L47.4886 47.2223L49.9894 43.7206L52.4927 47.2223V47.2247ZM65.0017 29.7091L62.5009 26.205L60 22.7034L57.4992 26.205L54.9983 29.7091L52.4951 33.2108L49.9942 36.7149L47.4934 33.2108L49.9942 29.7091L54.9983 22.7034L57.4992 19.2017L60.0024 15.6976L62.5033 19.2017L65.0041 22.7034L67.505 26.2074L70.0058 29.7115L72.5067 33.2132L70.0058 36.7149L67.505 33.2132L65.0041 29.7115L65.0017 29.7091ZM70.8506 51.9096L70.0058 50.7263L67.9418 47.8367L67.505 47.2247L70.0058 43.723L72.5067 47.2247L72.9435 47.8367L75.0075 50.7263L75.8523 51.9072H70.8482L70.8506 51.9096Z" fill="white"/>
<path d="M107.915 33.8277C107.204 33.8277 106.592 34.2429 106.302 34.8429H100.414L97.5055 38.9158H87.5453L85.7477 36.4006H96.2119L98.4151 33.3165C98.5135 33.3333 98.6143 33.3453 98.7199 33.3453C99.7111 33.3453 100.513 32.5437 100.513 31.5525C100.513 30.5613 99.7111 29.7596 98.7199 29.7596C97.7287 29.7596 96.9271 30.5613 96.9271 31.5525C96.9271 31.8645 97.0063 32.1597 97.1479 32.4141L95.4127 34.8454H84.6388L82.8436 32.3301H89.1149L92.0238 28.2572H102.034C102.325 28.8572 102.937 29.2724 103.647 29.2724C104.638 29.2724 105.44 28.4708 105.44 27.4796C105.44 26.4884 104.638 25.6868 103.647 25.6868C102.937 25.6868 102.325 26.102 102.034 26.702H91.2222L88.3133 30.7749H79.8171L86.7461 40.4759H98.3095L101.218 36.403H106.304C106.594 37.003 107.206 37.4182 107.917 37.4182C108.908 37.4182 109.71 36.6166 109.71 35.6254C109.71 34.6341 108.908 33.8325 107.917 33.8325L107.915 33.8277Z" fill="white"/>
<path d="M105.037 46.0437C104.327 46.0437 103.715 46.459 103.424 47.059H98.3673L95.4584 42.9861H88.5415L97.8201 55.9751H101.612C101.903 56.5752 102.515 56.9904 103.225 56.9904C104.216 56.9904 105.018 56.1887 105.018 55.1975C105.018 54.2063 104.216 53.4047 103.225 53.4047C102.515 53.4047 101.903 53.8199 101.612 54.4199H98.6217L91.568 44.5461H94.6592L97.5681 48.619H103.427C103.717 49.219 104.329 49.6342 105.039 49.6342C106.031 49.6342 106.832 48.8326 106.832 47.8414C106.832 46.8502 106.031 46.0485 105.039 46.0485L105.037 46.0437Z" fill="white"/>
<path d="M31.4539 42.9862H24.537L21.6281 47.0591H16.5712C16.2808 46.4591 15.6688 46.0439 14.9584 46.0439C13.9671 46.0439 13.1655 46.8455 13.1655 47.8367C13.1655 48.828 13.9671 49.6296 14.9584 49.6296C15.6688 49.6296 16.2808 49.2144 16.5712 48.6144H22.4297L25.3386 44.5415H28.4298L21.3761 54.4153H18.3856C18.0952 53.8153 17.4832 53.4001 16.7728 53.4001C15.7816 53.4001 14.98 54.2017 14.98 55.1929C14.98 56.1841 15.7816 56.9857 16.7728 56.9857C17.4832 56.9857 18.0952 56.5705 18.3856 55.9705H22.1777L31.4563 42.9814L31.4539 42.9862Z" fill="white"/>
<path d="M30.4723 25.197C31.1827 25.197 31.7947 24.7818 32.0851 24.1818H35.0756L37.9844 28.2547H41.9781L59.9977 3.02538L78.0172 28.2523H82.0109L84.9198 24.1794H87.9102C88.2006 24.7794 88.8126 25.1946 89.5231 25.1946C90.5143 25.1946 91.3159 24.393 91.3159 23.4018C91.3159 22.4106 90.5143 21.6089 89.5231 21.6089C88.8126 21.6089 88.2006 22.0242 87.9102 22.6242H84.1182L81.2093 26.6971H78.8188L59.9977 0.346924L41.1765 26.6971H38.786L35.8772 22.6242H32.0851C31.7947 22.0242 31.1827 21.6089 30.4723 21.6089C29.4811 21.6089 28.6794 22.4106 28.6794 23.4018C28.6794 24.393 29.4811 25.1946 30.4723 25.1946V25.197Z" fill="white"/>
<path d="M13.6936 36.3981H18.7793L21.6881 40.471H33.2515L40.1805 30.77H31.6843L28.7755 26.6971H17.9632C17.6728 26.0971 17.0608 25.6819 16.3504 25.6819C15.3592 25.6819 14.5576 26.4835 14.5576 27.4747C14.5576 28.4659 15.3592 29.2676 16.3504 29.2676C17.0608 29.2676 17.6728 28.8523 17.9632 28.2523H27.9738L30.8827 32.3252H37.154L35.3588 34.8381H24.585L22.8497 32.4068C22.9913 32.15 23.0705 31.8572 23.0705 31.5452C23.0705 30.554 22.2689 29.7524 21.2777 29.7524C20.2865 29.7524 19.4849 30.554 19.4849 31.5452C19.4849 32.5364 20.2865 33.338 21.2777 33.338C21.3809 33.338 21.4817 33.3284 21.5825 33.3092L23.7858 36.3933H34.25L32.4523 38.9085H22.4921L19.5833 34.8357H13.696C13.4055 34.2357 12.7935 33.8204 12.0831 33.8204C11.0919 33.8204 10.2903 34.6221 10.2903 35.6133C10.2903 36.6045 11.0919 37.4061 12.0831 37.4061C12.7935 37.4061 13.4055 36.9909 13.696 36.3909L13.6936 36.3981Z" fill="white"/>
</g>
<g clip-path="url(#clip2_2152_3610)">
<path d="M4.7569 64.0347L0 74.6381H2.54405L3.31687 72.8212H8.75538L9.52819 74.6381H12.089L7.33215 64.0347H4.7569ZM4.20968 70.7284L6.04332 66.4275L7.86016 70.7284H4.20968Z" fill="white"/>
<path d="M15.7323 64.0347H13.3706V74.6381H21.034V72.4708H15.7323V64.0347Z" fill="white"/>
<path d="M25.8558 71.866L22.8725 64.0347H20.2205L24.6437 74.6837H27.0822L31.4887 64.0347H28.839L25.8558 71.866Z" fill="white"/>
<path d="M35.1102 70.3204H40.3351V68.2444H35.1102V66.1995H40.6543V64.0347H32.7942V74.6381H40.868V72.4564H35.1126V70.3204H35.1102Z" fill="white"/>
<path d="M47.1921 68.1388C45.8289 68.0188 44.9048 67.8364 44.9048 66.8667C44.9048 66.1395 45.7521 65.7003 46.7985 65.7003C47.6313 65.7003 48.6609 65.9739 49.2513 66.5931L50.7345 65.2899C49.6449 64.0179 48.4161 63.6531 46.7817 63.6531C44.6 63.6531 42.6008 64.7739 42.5864 66.8787C42.5552 69.3772 44.5544 69.9388 46.7961 70.15C48.2361 70.2724 48.9465 70.6804 48.9321 71.5732C48.9321 72.3317 48.0681 72.8309 46.8105 72.8309C45.7352 72.8309 44.3864 72.3773 43.568 71.3308L42.1592 72.7997C43.052 74.2829 44.9624 74.9957 46.7937 74.9813C49.0809 74.9669 51.2626 73.9373 51.2626 71.5732C51.2626 69.2092 49.2777 68.3164 47.1873 68.134L47.1921 68.1388Z" fill="white"/>
<path d="M59.8741 64.0347L55.1172 74.6381H57.6612L58.4341 72.8212H63.8726L64.6454 74.6381H67.2062L62.4493 64.0347H59.8741ZM59.3293 70.7284L61.1629 66.4275L62.9797 70.7284H59.3293Z" fill="white"/>
<path d="M74.2912 68.1243L71.2023 64.049H68.4902V74.6524H70.8519V67.2459L74.0175 71.3956H74.4424L77.7136 67.2747V74.65H80.0753V64.0466H77.3944L74.2888 68.1219L74.2912 68.1243Z" fill="white"/>
<path d="M87.0857 63.7778C83.692 63.7778 81.3616 65.8827 81.3616 69.3363C81.3616 72.79 83.6944 74.8948 87.0857 74.8948C90.477 74.8948 92.8098 72.79 92.8098 69.3363C92.8098 65.8827 90.477 63.7778 87.0857 63.7778ZM87.0857 72.7588C85.072 72.7588 83.6776 71.3188 83.6776 69.3363C83.6776 67.3539 85.072 65.8971 87.0857 65.8971C89.0993 65.8971 90.4938 67.3971 90.4938 69.3363C90.4938 71.2756 89.1449 72.7588 87.0857 72.7588Z" fill="white"/>
<path d="M103.046 67.6083C103.046 65.7459 101.683 64.0347 99.1221 64.0347H94.094V74.6381H96.4556V71.1556H98.1669L100.879 74.6381H103.5V74.4557L100.591 70.942C102.621 70.2148 103.029 68.9884 103.044 67.6107L103.046 67.6083ZM99.1533 69.154H96.458V66.0651H99.1245C100.231 66.0651 100.699 66.9435 100.716 67.6707C100.716 68.338 100.245 69.154 99.1557 69.154H99.1533Z" fill="white"/>
<path d="M107.131 64.0347H104.784V74.6381H107.131V64.0347Z" fill="white"/>
<path d="M117.322 64.049L114.216 68.1243L111.127 64.049H108.415V74.6524H110.777V67.2459L113.942 71.3956H114.367L117.638 67.2747V74.65H120V64.0466H117.319L117.322 64.049Z" fill="white"/>
</g>
<g clip-path="url(#clip3_2152_3610)">
<path d="M26.2936 81.7039V82.9063H25.5232V78.8215C26.1592 78.8215 26.812 78.8167 27.448 78.8167C29.4545 78.8167 29.4617 81.6871 27.448 81.7039H26.2936ZM26.2936 80.9983H27.448C28.4345 80.9983 28.4273 79.5511 27.448 79.5511H26.2936V80.9983Z" fill="white"/>
<path d="M34.1226 82.9064H31.0649V78.8215H34.1226V79.5679H31.8306V80.5064H34.041V81.224H31.8306V82.1456H34.1226V82.904V82.9064Z" fill="white"/>
<path d="M40.0436 82.9063H39.1628L37.9796 81.5407H37.1972V82.9063H36.4268V78.8167C37.0748 78.8167 37.7228 78.8215 38.3708 78.8215C39.3332 78.8263 39.842 79.4695 39.842 80.1751C39.842 80.7343 39.5852 81.3007 38.81 81.4591L40.046 82.8535V82.9063H40.0436ZM37.1972 79.5391V80.8471H38.3708C38.8604 80.8471 39.0716 80.5207 39.0716 80.1943C39.0716 79.8679 38.8556 79.5415 38.3708 79.5415H37.1972V79.5391Z" fill="white"/>
<path d="M42.1558 82.9065V78.8216H42.919V82.9065H42.1558ZM43.4686 77.6216H42.6286L42.1966 78.416V78.452H42.8278L43.4686 77.6528V77.624V77.6216Z" fill="white"/>
<path d="M48.8542 82.3929C48.4342 82.8081 47.8918 83.0001 47.3013 83.0001C45.7845 83.0001 45.1437 81.9561 45.1365 80.8928C45.1317 79.8248 45.8253 78.74 47.3013 78.74C47.8558 78.74 48.3814 78.9512 48.8014 79.364L48.2878 79.8608C48.019 79.5992 47.6565 79.4768 47.3013 79.4768C46.3149 79.4768 45.8901 80.2112 45.8949 80.8952C45.8997 81.572 46.2909 82.2777 47.3013 82.2777C47.6565 82.2777 48.0598 82.1313 48.3286 81.8624L48.8542 82.3929Z" fill="white"/>
<path d="M50.9375 82.9064V78.8215H51.7007V82.9064H50.9375Z" fill="white"/>
<path d="M57.0048 82.136H54.8687L54.5183 82.9064H53.6831L55.5143 78.8215H56.3544L58.1856 82.9064H57.3456L57.0024 82.136H57.0048ZM55.9368 79.6807L55.1783 81.4184H56.6952L55.9368 79.6807Z" fill="white"/>
<path d="M66.4442 80.8304C66.461 81.8624 65.8322 82.9064 64.4018 82.9064H62.7961V78.8215H64.4018C65.801 78.8215 66.4274 79.8199 66.4442 80.828V80.8304ZM63.5618 82.1648H64.4018C65.3306 82.1648 65.6978 81.488 65.6786 80.8232C65.6618 80.1872 65.2874 79.5511 64.4018 79.5511H63.5618V82.1648Z" fill="white"/>
<path d="M68.6619 82.9064V78.8215H69.4251V82.9064H68.6619Z" fill="white"/>
<path d="M74.8324 79.8199C74.5588 79.5583 74.1507 79.4119 73.7931 79.4119C72.9171 79.4119 72.3867 80.0767 72.3867 80.9167C72.3867 81.5888 72.7779 82.2824 73.7931 82.2824C74.1147 82.2824 74.3932 82.2128 74.7148 81.956V81.2335H73.6707V80.5447H75.4204V82.2656C75.0172 82.7264 74.5108 83 73.7931 83C72.2595 83 71.6355 81.9896 71.6355 80.9167C71.6355 79.7671 72.3531 78.7063 73.7931 78.7063C74.3427 78.7063 74.89 78.9175 75.31 79.3303L74.8324 79.8199Z" fill="white"/>
<path d="M77.6931 82.9064V78.8215H78.4563V82.9064H77.6931Z" fill="white"/>
<path d="M81.8163 79.5223H80.5203V78.8215H83.8803V79.5223H82.5843V82.9064H81.8139V79.5223H81.8163Z" fill="white"/>
<path d="M88.4381 82.136H86.3021L85.9517 82.9064H85.1165L86.9477 78.8215H87.7877L89.6189 82.9064H88.7789L88.4357 82.136H88.4381ZM87.3701 79.6807L86.6117 81.4184H88.1285L87.3701 79.6807Z" fill="white"/>
<path d="M92.3766 78.8215V82.1936H94.4767V82.9064H91.6062V78.8215H92.3766Z" fill="white"/>
</g>
</g>
<defs>
<clipPath id="clip0_2152_3610">
<rect width="120" height="82.6531" fill="white" transform="translate(0 0.346924)"/>
</clipPath>
<clipPath id="clip1_2152_3610">
<rect width="99.4196" height="59.706" fill="white" transform="translate(10.2903 0.346924)"/>
</clipPath>
<clipPath id="clip2_2152_3610">
<rect width="120" height="11.3284" fill="white" transform="translate(0 63.6531)"/>
</clipPath>
<clipPath id="clip3_2152_3610">
<rect width="68.9534" height="5.37851" fill="white" transform="translate(25.5232 77.6216)"/>
</clipPath>
</defs>
</svg>
