<svg width="175" height="110" viewBox="0 0 175 110" fill="none" xmlns="http://www.w3.org/2000/svg">
    <g clip-path="url(#clip0_2198_1587)">
        <g clip-path="url(#clip1_2198_1587)">
            <path
                d="M131.921 75.6822L127.698 69.7724L119.799 58.7126L116.164 53.6252L112.533 58.7091L116.168 63.7965L120.436 69.7724L124.66 75.6822H117.394L113.171 69.7724L112.537 68.8839L108.906 63.7965L105.275 58.7091L108.906 53.6252L112.537 48.5378L108.906 43.4539L105.275 38.3665L101.644 33.2826L98.0134 28.1952L94.3826 23.1113L90.7517 18.0239L87.1209 12.9365L83.49 18.0239L79.8556 23.1078L76.2248 28.1952L72.5939 33.2791L68.9631 38.3665L65.3322 43.4539L61.7013 48.5378L65.3322 53.6217L68.9631 58.7091L65.3322 63.7965L61.7013 68.8804L61.0672 69.7689L56.8439 75.6787H49.5787L53.8019 69.7689L58.0705 63.793L61.7013 58.7091L58.0705 53.6252L54.4396 58.7091L46.5402 69.7689L42.317 75.6787L38.0938 81.5919H52.6242L48.4009 87.5051H55.6662L59.8894 81.5919H74.4198L76.2352 79.0482L78.643 75.6787L79.8696 73.9643L82.8663 69.7689L83.5004 68.8804L79.8696 63.7965L76.2352 58.7091L79.8661 53.6252L83.5004 48.5378L87.1313 43.4539L90.7622 48.5378L94.393 53.6252L98.0239 58.7091L94.393 63.793L90.7622 68.8804L91.3964 69.7689L94.393 73.9643L95.6196 75.6787L98.0274 79.0482L99.8428 81.5919H114.373L118.596 87.5051H125.862L121.638 81.5919H136.169L131.946 75.6787L131.921 75.6822ZM76.2108 68.8804L75.5767 69.7689L72.58 73.9643L71.3534 75.6787H64.0882L65.3148 73.9608L68.3115 69.7655L68.9456 68.8769L72.5765 63.793L76.2108 68.8769V68.8804ZM94.3721 43.4504L90.7413 38.363L87.1104 33.2791L83.4795 38.363L79.8487 43.4504L76.2143 48.5343L72.5835 53.6217L68.9526 48.5343L72.5835 43.4504L79.8487 33.2791L83.4795 28.1952L87.1139 23.1078L90.7448 28.1952L94.3756 33.2791L98.0065 38.3665L101.637 43.4539L105.268 48.5378L101.637 53.6217L98.0065 48.5378L94.3756 43.4539L94.3721 43.4504ZM102.864 75.6822L101.637 73.9643L98.6407 69.7689L98.0065 68.8804L101.637 63.7965L105.268 68.8804L105.902 69.7689L108.899 73.9643L110.126 75.6787H102.86L102.864 75.6822Z"
                fill="#3968ED" />
            <path
                d="M156.675 49.4298C155.644 49.4298 154.755 50.0326 154.333 50.9038H145.786L141.563 56.817H127.102L124.492 53.1652H139.685L142.883 48.6876C143.026 48.712 143.173 48.7294 143.326 48.7294C144.765 48.7294 145.929 47.5656 145.929 46.1265C145.929 44.6874 144.765 43.5236 143.326 43.5236C141.887 43.5236 140.723 44.6874 140.723 46.1265C140.723 46.5795 140.838 47.0081 141.044 47.3774L138.524 50.9073H122.882L120.276 47.2555H129.381L133.604 41.3423H148.138C148.56 42.2134 149.448 42.8162 150.48 42.8162C151.919 42.8162 153.083 41.6524 153.083 40.2133C153.083 38.7742 151.919 37.6104 150.48 37.6104C149.448 37.6104 148.56 38.2132 148.138 39.0843H132.44L128.217 44.9975H115.882L125.942 59.0819H142.73L146.953 53.1687H154.337C154.759 54.0398 155.647 54.6427 156.679 54.6427C158.118 54.6427 159.281 53.4788 159.281 52.0397C159.281 50.6006 158.118 49.4368 156.679 49.4368L156.675 49.4298Z"
                fill="#3968ED" />
            <path
                d="M152.498 67.1658C151.466 67.1658 150.578 67.7687 150.156 68.6398H142.814L138.591 62.7266H128.549L142.02 81.5847H147.525C147.947 82.4559 148.836 83.0587 149.867 83.0587C151.306 83.0587 152.47 81.8949 152.47 80.4558C152.47 79.0167 151.306 77.8528 149.867 77.8528C148.836 77.8528 147.947 78.4557 147.525 79.3268H143.184L132.943 64.9915H137.431L141.654 70.9047H150.16C150.581 71.7758 151.47 72.3787 152.501 72.3787C153.94 72.3787 155.104 71.2148 155.104 69.7757C155.104 68.3366 153.94 67.1728 152.501 67.1728L152.498 67.1658Z"
                fill="#3968ED" />
            <path
                d="M45.6663 62.7267H35.6239L31.4007 68.6399H24.0588C23.6372 67.7688 22.7486 67.166 21.7172 67.166C20.2781 67.166 19.1143 68.3298 19.1143 69.7689C19.1143 71.208 20.2781 72.3718 21.7172 72.3718C22.7486 72.3718 23.6372 71.769 24.0588 70.8979H32.5645L36.7877 64.9847H41.2758L31.0348 79.3199H26.6931C26.2714 78.4488 25.3829 77.846 24.3515 77.846C22.9124 77.846 21.7486 79.0098 21.7486 80.4489C21.7486 81.888 22.9124 83.0519 24.3515 83.0519C25.3829 83.0519 26.2714 82.449 26.6931 81.5779H32.1986L45.6697 62.7197L45.6663 62.7267Z"
                fill="#3968ED" />
            <path
                d="M44.2406 36.8995C45.272 36.8995 46.1606 36.2966 46.5822 35.4255H50.9239L55.1472 41.3387H60.9454L87.1071 4.70952L113.269 41.3352H119.067L123.29 35.422H127.632C128.054 36.2931 128.942 36.896 129.974 36.896C131.413 36.896 132.577 35.7321 132.577 34.293C132.577 32.8539 131.413 31.6901 129.974 31.6901C128.942 31.6901 128.054 32.2929 127.632 33.1641H122.126L117.903 39.0773H114.433L87.1071 0.820801L59.7816 39.0773H56.311L52.0878 33.1641H46.5822C46.1606 32.2929 45.272 31.6901 44.2406 31.6901C42.8015 31.6901 41.6377 32.8539 41.6377 34.293C41.6377 35.7321 42.8015 36.896 44.2406 36.896V36.8995Z"
                fill="#3968ED" />
            <path
                d="M19.8805 53.1614H27.2642L31.4874 59.0746H48.2758L58.3356 44.9902H46.0004L41.7772 39.077H26.0794C25.6578 38.2058 24.7693 37.603 23.7378 37.603C22.2987 37.603 21.1349 38.7669 21.1349 40.206C21.1349 41.6451 22.2987 42.8089 23.7378 42.8089C24.7693 42.8089 25.6578 42.2061 26.0794 41.3349H40.6133L44.8366 47.2482H53.9416L51.3352 50.8964H35.6932L33.1739 47.3666C33.3795 46.9938 33.4945 46.5687 33.4945 46.1157C33.4945 44.6766 32.3307 43.5128 30.8916 43.5128C29.4525 43.5128 28.2886 44.6766 28.2886 46.1157C28.2886 47.5548 29.4525 48.7186 30.8916 48.7186C31.0414 48.7186 31.1877 48.7047 31.3341 48.6768L34.5329 53.1544H49.7254L47.1154 56.8062H32.6547L28.4315 50.893H19.884C19.4624 50.0218 18.5738 49.419 17.5424 49.419C16.1033 49.419 14.9395 50.5828 14.9395 52.0219C14.9395 53.4611 16.1033 54.6249 17.5424 54.6249C18.5738 54.6249 19.4624 54.0221 19.884 53.1509L19.8805 53.1614Z"
                fill="#3968ED" />
        </g>
        <g clip-path="url(#clip2_2198_1587)">
            <path
                d="M6.90631 93.2861L0 108.681H3.69358L4.8156 106.043H12.7115L13.8335 108.681H17.5515L10.6452 93.2861H6.90631ZM6.11184 103.004L8.774 96.7602L11.4118 103.004H6.11184Z"
                fill="#E6E6E6" />
            <path d="M22.8409 93.2861H19.4121V108.681H30.5382V105.534H22.8409V93.2861Z"
                fill="#E6E6E6" />
            <path
                d="M37.5391 104.656L33.2078 93.2861H29.3574L35.7794 108.747H39.3196L45.7172 93.2861H41.8703L37.5391 104.656Z"
                fill="#E6E6E6" />
            <path
                d="M50.9749 102.412H58.5606V99.398H50.9749V96.4292H59.0241V93.2861H47.6123V108.681H59.3342V105.513H50.9783V102.412H50.9749Z"
                fill="#E6E6E6" />
            <path
                d="M68.516 99.2445C66.5368 99.0703 65.1953 98.8054 65.1953 97.3977C65.1953 96.3419 66.4253 95.7042 67.9445 95.7042C69.1537 95.7042 70.6485 96.1015 71.5057 97.0005L73.6591 95.1084C72.0772 93.2616 70.2931 92.7319 67.9202 92.7319C64.7527 92.7319 61.8501 94.3592 61.8292 97.4151C61.7839 101.042 64.6865 101.858 67.9411 102.165C70.0318 102.342 71.0632 102.935 71.0423 104.231C71.0423 105.332 69.7879 106.057 67.962 106.057C66.4009 106.057 64.4426 105.398 63.2544 103.879L61.209 106.011C62.5052 108.165 65.2789 109.2 67.9376 109.179C71.2583 109.158 74.4257 107.663 74.4257 104.231C74.4257 100.799 71.5441 99.5023 68.509 99.2375L68.516 99.2445Z"
                fill="#E6E6E6" />
            <path
                d="M86.9278 93.2861L80.0215 108.681H83.7151L84.8371 106.043H92.733L93.855 108.681H97.573L90.6667 93.2861H86.9278ZM86.1368 103.004L88.799 96.7602L91.4368 103.004H86.1368Z"
                fill="#E6E6E6" />
            <path
                d="M107.86 99.2234L103.375 93.3067H99.4375V108.701H102.866V97.9481L107.462 103.973H108.079L112.828 97.9899V108.698H116.257V93.3032H112.365L107.856 99.2199L107.86 99.2234Z"
                fill="#E6E6E6" />
            <path
                d="M126.436 92.9131C121.508 92.9131 118.125 95.969 118.125 100.983C118.125 105.997 121.512 109.053 126.436 109.053C131.359 109.053 134.746 105.997 134.746 100.983C134.746 95.969 131.359 92.9131 126.436 92.9131ZM126.436 105.952C123.512 105.952 121.488 103.861 121.488 100.983C121.488 98.105 123.512 95.9899 126.436 95.9899C129.359 95.9899 131.384 98.1677 131.384 100.983C131.384 103.799 129.425 105.952 126.436 105.952Z"
                fill="#E6E6E6" />
            <path
                d="M149.608 98.4746C149.608 95.7706 147.628 93.2861 143.91 93.2861H136.61V108.681H140.039V103.625H142.524L146.461 108.681H150.266V108.416L146.043 103.315C148.991 102.259 149.583 100.478 149.604 98.4781L149.608 98.4746ZM143.956 100.719H140.043V96.234H143.914C145.52 96.234 146.2 97.5094 146.224 98.5652C146.224 99.5339 145.541 100.719 143.959 100.719H143.956Z"
                fill="#E6E6E6" />
            <path d="M155.538 93.2861H152.13V108.681H155.538V93.2861Z" fill="#E6E6E6" />
            <path
                d="M170.333 93.3067L165.824 99.2234L161.34 93.3067H157.402V108.701H160.831V97.9481L165.427 103.973H166.044L170.793 97.9899V108.698H174.222V93.3032H170.33L170.333 93.3067Z"
                fill="#E6E6E6" />
        </g>
    </g>
    <defs>
        <clipPath id="clip0_2198_1587">
            <rect width="174.222" height="108.358" fill="white" transform="translate(0 0.820801)" />
        </clipPath>
        <clipPath id="clip1_2198_1587">
            <rect width="144.342" height="86.6842" fill="white"
                transform="translate(14.9395 0.820801)" />
        </clipPath>
        <clipPath id="clip2_2198_1587">
            <rect width="174.222" height="16.4472" fill="white" transform="translate(0 92.7319)" />
        </clipPath>
    </defs>
</svg>