<svg width="233" height="160" viewBox="0 0 233 160" fill="none" xmlns="http://www.w3.org/2000/svg">
<g clip-path="url(#clip0_8934_2453)">
<g clip-path="url(#clip1_8934_2453)">
<path d="M175.896 99.8151L170.265 91.9355L159.733 77.189L154.887 70.4058L150.046 77.1844L154.892 83.9676L160.583 91.9355L166.214 99.8151H156.527L150.896 91.9355L150.05 90.7508L145.209 83.9676L140.368 77.1844L145.209 70.4058L150.05 63.6227L145.209 56.8441L140.368 50.0609L135.527 43.2824L130.686 36.4992L125.845 29.7207L121.004 22.9375L116.162 16.1543L111.321 22.9375L106.475 29.716L101.634 36.4992L96.7932 43.2778L91.952 50.0609L87.1109 56.8441L82.2697 63.6227L87.1109 70.4012L91.952 77.1844L87.1109 83.9676L82.2697 90.7461L81.4242 91.9308L75.7932 99.8105H66.1062L71.7372 91.9308L77.4286 83.9629L82.2697 77.1844L77.4286 70.4058L72.5874 77.1844L62.0549 91.9308L56.4239 99.8105L50.793 107.695H70.1669L64.5359 115.579H74.2228L79.8538 107.695H99.2277L101.648 104.303L104.859 99.8105L106.494 97.5247L110.49 91.9308L111.335 90.7461L106.494 83.9676L101.648 77.1844L106.489 70.4058L111.335 63.6227L116.176 56.8441L121.018 63.6227L125.859 70.4058L130.7 77.1844L125.859 83.9629L121.018 90.7461L121.863 91.9308L125.859 97.5247L127.494 99.8105L130.704 104.303L133.125 107.695H152.499L158.13 115.579H167.817L162.186 107.695H181.56L175.929 99.8105L175.896 99.8151ZM101.616 90.7461L100.77 91.9308L96.7746 97.5247L95.1392 99.8105H85.4523L87.0877 97.52L91.0832 91.9262L91.9288 90.7415L96.77 83.9629L101.616 90.7415V90.7461ZM125.831 56.8395L120.99 50.0563L116.148 43.2778L111.307 50.0563L106.466 56.8395L101.62 63.618L96.7793 70.4012L91.9381 63.618L96.7793 56.8395L106.466 43.2778L111.307 36.4992L116.153 29.716L120.994 36.4992L125.835 43.2778L130.677 50.0609L135.518 56.8441L140.359 63.6227L135.518 70.4012L130.677 63.6227L125.835 56.8441L125.831 56.8395ZM137.153 99.8151L135.518 97.5247L131.522 91.9308L130.677 90.7461L135.518 83.9676L140.359 90.7461L141.204 91.9308L145.2 97.5247L146.835 99.8105H137.148L137.153 99.8151Z" fill="#3968ED"/>
<path d="M208.902 64.812C207.526 64.812 206.342 65.6158 205.78 66.7773H194.383L188.752 74.6616H169.471L165.991 69.7926H186.248L190.513 63.8224C190.703 63.8549 190.898 63.8782 191.103 63.8782C193.022 63.8782 194.573 62.3264 194.573 60.4076C194.573 58.4888 193.022 56.937 191.103 56.937C189.184 56.937 187.632 58.4888 187.632 60.4076C187.632 61.0116 187.786 61.583 188.06 62.0755L184.701 66.7819H163.845L160.369 61.9129H172.509L178.14 54.0286H197.519C198.081 55.1901 199.266 55.9939 200.641 55.9939C202.56 55.9939 204.112 54.4421 204.112 52.5233C204.112 50.6045 202.56 49.0527 200.641 49.0527C199.266 49.0527 198.081 49.8565 197.519 51.018H176.589L170.958 58.9023H154.511L167.924 77.6815H190.308L195.939 69.7972H205.784C206.346 70.9587 207.531 71.7625 208.906 71.7625C210.825 71.7625 212.377 70.2107 212.377 68.2919C212.377 66.3731 210.825 64.8213 208.906 64.8213L208.902 64.812Z" fill="#3968ED"/>
<path d="M203.331 88.46C201.955 88.46 200.771 89.2638 200.208 90.4253H190.419L184.788 82.541H171.398L189.36 107.685H196.701C197.263 108.847 198.448 109.651 199.823 109.651C201.742 109.651 203.293 108.099 203.293 106.18C203.293 104.261 201.742 102.709 199.823 102.709C198.448 102.709 197.263 103.513 196.701 104.675H190.912L177.257 85.5609H183.241L188.872 93.4452H200.213C200.775 94.6067 201.96 95.4105 203.335 95.4105C205.254 95.4105 206.806 93.8587 206.806 91.9399C206.806 90.0211 205.254 88.4693 203.335 88.4693L203.331 88.46Z" fill="#3968ED"/>
<path d="M60.889 82.5415H47.4992L41.8682 90.4258H32.079C31.5169 89.2643 30.3321 88.4605 28.9569 88.4605C27.0381 88.4605 25.4863 90.0123 25.4863 91.9311C25.4863 93.8499 27.0381 95.4017 28.9569 95.4017C30.3321 95.4017 31.5169 94.5979 32.079 93.4364H43.42L49.0509 85.5521H55.035L41.3804 104.666H35.5914C35.0293 103.504 33.8445 102.701 32.4693 102.701C30.5505 102.701 28.9987 104.252 28.9987 106.171C28.9987 108.09 30.5505 109.642 32.4693 109.642C33.8445 109.642 35.0293 108.838 35.5914 107.676H42.9321L60.8936 82.5322L60.889 82.5415Z" fill="#3968ED"/>
<path d="M58.9882 48.1049C60.3634 48.1049 61.5481 47.3011 62.1103 46.1396H67.8992L73.5302 54.0239H81.2612L116.143 5.18496L151.026 54.0193H158.757L164.388 46.135H170.177C170.739 47.2965 171.924 48.1002 173.299 48.1002C175.218 48.1002 176.769 46.5485 176.769 44.6297C176.769 42.7108 175.218 41.1591 173.299 41.1591C171.924 41.1591 170.739 41.9628 170.177 43.1243H162.836L157.205 51.0086H152.578L116.143 0L79.7094 51.0086H75.082L69.451 43.1243H62.1103C61.5481 41.9628 60.3634 41.1591 58.9882 41.1591C57.0693 41.1591 55.5176 42.7108 55.5176 44.6297C55.5176 46.5485 57.0693 48.1002 58.9882 48.1002V48.1049Z" fill="#3968ED"/>
<path d="M26.508 69.7874H36.3529L41.9839 77.6717H64.3684L77.7814 58.8925H61.3345L55.7036 51.0082H34.7732C34.2111 49.8467 33.0263 49.043 31.6511 49.043C29.7323 49.043 28.1805 50.5947 28.1805 52.5135C28.1805 54.4324 29.7323 55.9841 31.6511 55.9841C33.0263 55.9841 34.2111 55.1804 34.7732 54.0189H54.1518L59.7828 61.9032H71.9228L68.4476 66.7675H47.5916L44.2325 62.0611C44.5067 61.564 44.66 60.9972 44.66 60.3932C44.66 58.4744 43.1082 56.9226 41.1894 56.9226C39.2706 56.9226 37.7188 58.4744 37.7188 60.3932C37.7188 62.312 39.2706 63.8638 41.1894 63.8638C41.3892 63.8638 41.5843 63.8452 41.7794 63.808L46.0445 69.7782H66.3011L62.8213 74.6472H43.5403L37.9093 66.7629H26.5126C25.9505 65.6014 24.7657 64.7976 23.3905 64.7976C21.4717 64.7976 19.9199 66.3494 19.9199 68.2682C19.9199 70.187 21.4717 71.7388 23.3905 71.7388C24.7657 71.7388 25.9505 70.935 26.5126 69.7735L26.508 69.7874Z" fill="#3968ED"/>
</g>
<g clip-path="url(#clip2_8934_2453)">
<path d="M9.20841 123.286L0 143.812H4.92478L6.4208 140.295H16.9487L18.4447 143.812H23.402L14.1936 123.286H9.20841ZM8.14912 136.244L11.6987 127.918L15.2157 136.244H8.14912Z" fill="#E6E6E6"/>
<path d="M30.4545 123.286H25.8828V143.812H40.7175V139.617H30.4545V123.286Z" fill="#E6E6E6"/>
<path d="M50.0514 138.446L44.2764 123.286H39.1426L47.7052 143.901H52.4255L60.9556 123.286H55.8264L50.0514 138.446Z" fill="#E6E6E6"/>
<path d="M67.9668 135.454H78.0812V131.435H67.9668V127.477H78.6991V123.286H63.4834V143.812H79.1126V139.589H67.9715V135.454H67.9668Z" fill="#E6E6E6"/>
<path d="M91.355 131.231C88.7161 130.999 86.9274 130.646 86.9274 128.769C86.9274 127.361 88.5674 126.511 90.5931 126.511C92.2052 126.511 94.1984 127.041 95.3413 128.239L98.2125 125.716C96.1032 123.254 93.7245 122.548 90.5605 122.548C86.3373 122.548 82.4672 124.718 82.4393 128.792C82.3789 133.629 86.249 134.716 90.5884 135.125C93.376 135.362 94.7512 136.151 94.7234 137.88C94.7234 139.348 93.0508 140.314 90.6163 140.314C88.5349 140.314 85.9238 139.436 84.3395 137.41L81.6123 140.254C83.3406 143.125 87.0389 144.505 90.5838 144.477C95.0114 144.449 99.2346 142.456 99.2346 137.88C99.2346 133.303 95.3924 131.575 91.3457 131.222L91.355 131.231Z" fill="#E6E6E6"/>
<path d="M115.904 123.286L106.695 143.812H111.62L113.116 140.295H123.644L125.14 143.812H130.097L120.889 123.286H115.904ZM114.849 136.244L118.399 127.918L121.916 136.244H114.849Z" fill="#E6E6E6"/>
<path d="M143.812 131.203L137.833 123.314H132.583V143.84H137.155V129.503L143.283 137.536H144.105L150.438 129.558V143.836H155.009V123.31H149.82L143.808 131.199L143.812 131.203Z" fill="#E6E6E6"/>
<path d="M168.581 122.789C162.011 122.789 157.5 126.864 157.5 133.549C157.5 140.235 162.016 144.309 168.581 144.309C175.146 144.309 179.662 140.235 179.662 133.549C179.662 126.864 175.146 122.789 168.581 122.789ZM168.581 140.174C164.683 140.174 161.983 137.387 161.983 133.549C161.983 129.712 164.683 126.891 168.581 126.891C172.479 126.891 175.178 129.795 175.178 133.549C175.178 137.303 172.567 140.174 168.581 140.174Z" fill="#E6E6E6"/>
<path d="M199.477 130.204C199.477 126.599 196.838 123.286 191.881 123.286H182.147V143.812H186.719V137.071H190.032L195.282 143.812H200.355V143.459L194.724 136.657C198.655 135.25 199.445 132.876 199.472 130.209L199.477 130.204ZM191.941 133.196H186.724V127.217H191.886C194.027 127.217 194.933 128.917 194.966 130.325C194.966 131.616 194.055 133.196 191.946 133.196H191.941Z" fill="#E6E6E6"/>
<path d="M207.385 123.286H202.841V143.812H207.385V123.286Z" fill="#E6E6E6"/>
<path d="M227.111 123.314L221.1 131.203L215.12 123.314H209.87V143.84H214.442V129.503L220.57 137.536H221.392L227.725 129.558V143.836H232.296V123.31H227.107L227.111 123.314Z" fill="#E6E6E6"/>
</g>
<g clip-path="url(#clip3_8934_2453)">
<path d="M50.8996 157.491V159.818H49.4082V151.911C50.6394 151.911 51.9031 151.901 53.1343 151.901C57.0184 151.901 57.0323 157.458 53.1343 157.491H50.8996ZM50.8996 156.125H53.1343C55.0438 156.125 55.0299 153.323 53.1343 153.323H50.8996V156.125Z" fill="#3968ED"/>
<path d="M66.0548 159.819H60.1357V151.911H66.0548V153.356H61.6178V155.173H65.8968V156.562H61.6178V158.346H66.0548V159.814V159.819Z" fill="#3968ED"/>
<path d="M77.5162 159.818H75.8111L73.5206 157.175H72.006V159.818H70.5146V151.901C71.7691 151.901 73.0235 151.911 74.2779 151.911C76.141 151.92 77.1259 153.165 77.1259 154.531C77.1259 155.614 76.6288 156.71 75.1281 157.017L77.5208 159.716V159.818H77.5162ZM72.006 153.3V155.832H74.2779C75.2257 155.832 75.6346 155.2 75.6346 154.568C75.6346 153.936 75.2164 153.304 74.2779 153.304H72.006V153.3Z" fill="#3968ED"/>
<path d="M81.6055 159.818V151.911H83.0829V159.818H81.6055ZM84.1468 149.588H82.5207L81.6845 151.126V151.195H82.9064L84.1468 149.648V149.593V149.588Z" fill="#3968ED"/>
<path d="M94.5717 158.824C93.7587 159.628 92.7087 160 91.5658 160C88.6295 160 87.389 157.979 87.375 155.92C87.3658 153.853 88.7084 151.753 91.5658 151.753C92.639 151.753 93.6565 152.162 94.4695 152.961L93.4753 153.923C92.9549 153.416 92.2534 153.179 91.5658 153.179C89.6562 153.179 88.8339 154.601 88.8432 155.925C88.8525 157.235 89.6098 158.601 91.5658 158.601C92.2534 158.601 93.0339 158.318 93.5542 157.797L94.5717 158.824Z" fill="#3968ED"/>
<path d="M98.6045 159.819V151.911H100.082V159.819H98.6045Z" fill="#3968ED"/>
<path d="M110.35 158.327H106.215L105.537 159.819H103.92L107.465 151.911H109.091L112.636 159.819H111.01L110.345 158.327H110.35ZM108.283 153.574L106.814 156.938H109.751L108.283 153.574Z" fill="#3968ED"/>
<path d="M128.622 155.8C128.655 157.798 127.438 159.819 124.669 159.819H121.561V151.911H124.669C127.377 151.911 128.59 153.844 128.622 155.795V155.8ZM123.043 158.383H124.669C126.467 158.383 127.178 157.073 127.14 155.786C127.108 154.555 126.383 153.324 124.669 153.324H123.043V158.383Z" fill="#3968ED"/>
<path d="M132.916 159.819V151.911H134.393V159.819H132.916Z" fill="#3968ED"/>
<path d="M144.86 153.843C144.331 153.337 143.541 153.053 142.849 153.053C141.153 153.053 140.126 154.34 140.126 155.966C140.126 157.267 140.883 158.61 142.849 158.61C143.471 158.61 144.01 158.475 144.633 157.978V156.58H142.612V155.246H145.999V158.578C145.218 159.47 144.238 159.999 142.849 159.999C139.88 159.999 138.672 158.043 138.672 155.966C138.672 153.741 140.061 151.688 142.849 151.688C143.913 151.688 144.972 152.096 145.785 152.895L144.86 153.843Z" fill="#3968ED"/>
<path d="M150.398 159.819V151.911H151.876V159.819H150.398Z" fill="#3968ED"/>
<path d="M158.381 153.268H155.872V151.911H162.376V153.268H159.868V159.819H158.376V153.268H158.381Z" fill="#3968ED"/>
<path d="M171.199 158.327H167.064L166.385 159.819H164.769L168.313 151.911H169.94L173.484 159.819H171.858L171.194 158.327H171.199ZM169.131 153.574L167.663 156.938H170.599L169.131 153.574Z" fill="#3968ED"/>
<path d="M178.823 151.911V158.439H182.889V159.819H177.332V151.911H178.823Z" fill="#3968ED"/>
</g>
</g>
<defs>
<clipPath id="clip0_8934_2453">
<rect width="232.296" height="160" fill="white"/>
</clipPath>
<clipPath id="clip1_8934_2453">
<rect width="192.457" height="115.579" fill="white" transform="translate(19.9199)"/>
</clipPath>
<clipPath id="clip2_8934_2453">
<rect width="232.296" height="21.9296" fill="white" transform="translate(0 122.548)"/>
</clipPath>
<clipPath id="clip3_8934_2453">
<rect width="133.48" height="10.4117" fill="white" transform="translate(49.4082 149.588)"/>
</clipPath>
</defs>
</svg>
