<svg width="1544" height="926" viewBox="0 0 1544 926" fill="none" xmlns="http://www.w3.org/2000/svg">
    <g opacity="0.05">
        <path
            d="M292.738 799.702L461.272 564.079L500.107 618.388L370.408 799.702H448.116L577.741 618.388L500.07 509.734L771.917 129.425L1043.8 509.734L966.13 618.388L1095.75 799.665H1173.46L1043.8 618.388L1082.64 564.079L1296.3 862.832H1140.89L1186.06 926H1108.35L1063.18 862.832H907.766L810.64 727.042L888.348 618.388L771.805 455.425L655.299 618.388L732.97 727.042L635.844 862.832H480.429L435.258 926H357.55L402.721 862.832H247.306L292.477 799.665L292.738 799.702ZM888.609 727.042L940.563 799.665H1018.27L927.481 672.697L888.609 727.005V727.042ZM694.358 455.388L772.029 346.734L927.407 564.042L966.242 509.696L771.991 238.079L577.815 509.734L616.65 564.042L694.321 455.425L694.358 455.388ZM603.531 799.702L655.486 727.042L616.65 672.734L525.861 799.665H603.569L603.531 799.702Z"
            fill="#0A0A0B" />
        <path
            d="M27.9724 519.263C39.0043 519.263 48.5082 525.702 53.0178 535.008H144.441L189.612 598.176H344.282L372.197 559.166H209.7L175.487 511.334C173.959 511.595 172.393 511.781 170.753 511.781C155.361 511.781 142.913 499.349 142.913 483.975C142.913 468.602 155.361 456.17 170.753 456.17C186.146 456.17 198.594 468.602 198.594 483.975C198.594 488.814 197.364 493.393 195.165 497.338L222.111 535.045H389.416L417.294 496.036H319.907L274.736 432.868H119.284C114.774 442.174 105.27 448.613 94.2384 448.613C78.8459 448.613 66.3977 436.181 66.3977 420.808C66.3977 405.434 78.8459 393.002 94.2384 393.002C105.27 393.002 114.774 399.442 119.284 408.747H287.185L332.356 471.915H464.291L356.693 622.371H177.127L131.956 559.203H52.9805C48.4708 568.509 38.9669 574.949 27.9351 574.949C12.5426 574.949 0.0944824 562.516 0.0944824 547.143C0.0944824 531.77 12.5426 519.337 27.9351 519.337L27.9724 519.263Z"
            fill="#0A0A0B" />
        <path
            d="M72.6591 708.729C83.6909 708.729 93.1947 715.168 97.7043 724.474H176.232L221.403 661.306H328.815L184.73 862.758H125.843C121.333 872.064 111.83 878.503 100.798 878.503C85.4053 878.503 72.957 866.071 72.957 850.698C72.957 835.324 85.4053 822.892 100.798 822.892C111.83 822.892 121.333 829.332 125.843 838.637H172.281L281.818 685.501H233.814L188.643 748.669H97.667C93.1573 757.975 83.6536 764.414 72.6217 764.414C57.2292 764.414 44.7809 751.982 44.7809 736.609C44.7809 721.236 57.2292 708.803 72.6217 708.803L72.6591 708.729Z"
            fill="#0A0A0B" />
        <path
            d="M1215.32 661.306H1322.73L1367.9 724.474H1446.43C1450.94 715.168 1460.44 708.729 1471.47 708.729C1486.87 708.729 1499.31 721.161 1499.31 736.534C1499.31 751.907 1486.87 764.34 1471.47 764.34C1460.44 764.34 1450.94 757.9 1446.43 748.595H1355.45L1310.28 685.427H1262.28L1371.81 838.563H1418.25C1422.76 829.257 1432.26 822.818 1443.3 822.818C1458.69 822.818 1471.14 835.25 1471.14 850.623C1471.14 865.996 1458.69 878.429 1443.3 878.429C1432.26 878.429 1422.76 871.989 1418.25 862.684H1359.36L1215.28 661.232L1215.32 661.306Z"
            fill="#0A0A0B" />
        <path
            d="M1230.56 385.408C1219.53 385.408 1210.02 378.969 1205.51 369.663H1159.08L1113.91 432.831H1051.89L772.066 41.541L492.244 432.793H430.226L385.055 369.626H338.617C334.107 378.932 324.603 385.371 313.572 385.371C298.179 385.371 285.731 372.939 285.731 357.566C285.731 342.192 298.179 329.76 313.572 329.76C324.603 329.76 334.107 336.199 338.617 345.505H397.503L442.675 408.673H479.795L772.066 0L1064.34 408.673H1101.46L1146.63 345.505H1205.51C1210.02 336.199 1219.53 329.76 1230.56 329.76C1245.95 329.76 1258.4 342.192 1258.4 357.566C1258.4 372.939 1245.95 385.371 1230.56 385.371V385.408Z"
            fill="#0A0A0B" />
        <path
            d="M1491.11 559.129H1412.14L1366.97 622.296H1187.4L1079.8 471.841H1211.74L1256.91 408.673H1424.81C1429.32 399.367 1438.82 392.927 1449.86 392.927C1465.25 392.927 1477.7 405.36 1477.7 420.733C1477.7 436.106 1465.25 448.539 1449.86 448.539C1438.82 448.539 1429.32 442.099 1424.81 432.793H1269.36L1224.19 495.961H1126.8L1154.68 534.934H1321.98L1348.93 497.227C1346.73 493.244 1345.5 488.703 1345.5 483.864C1345.5 468.491 1357.95 456.058 1373.34 456.058C1388.73 456.058 1401.18 468.491 1401.18 483.864C1401.18 499.237 1388.73 511.669 1373.34 511.669C1371.74 511.669 1370.17 511.52 1368.61 511.223L1334.39 559.054H1171.9L1199.81 598.064H1354.48L1399.65 534.897H1491.11C1495.62 525.591 1505.13 519.151 1516.16 519.151C1531.55 519.151 1544 531.584 1544 546.957C1544 562.33 1531.55 574.763 1516.16 574.763C1505.13 574.763 1495.62 568.323 1491.11 559.017V559.129Z"
            fill="#0A0A0B" />
    </g>
</svg>