<svg width="40" height="40" viewBox="0 0 40 40" fill="none" xmlns="http://www.w3.org/2000/svg">
<path d="M18.75 11.875V29.375C18.75 29.5408 18.6842 29.6997 18.5669 29.8169C18.4497 29.9342 18.2908 30 18.125 30H15V32.5H17.4578C17.7803 32.496 18.0924 32.6141 18.3314 32.8306C18.5705 33.047 18.7189 33.3459 18.7469 33.6672C18.7582 33.8382 18.7343 34.0097 18.6766 34.171C18.6189 34.3324 18.5286 34.4801 18.4114 34.6051C18.2942 34.7301 18.1525 34.8297 17.9952 34.8976C17.8378 34.9655 17.6682 35.0004 17.4969 35H10.0422C9.71917 35.0048 9.40632 34.887 9.16658 34.6705C8.92685 34.454 8.77801 34.1547 8.75 33.8328C8.73865 33.6618 8.76257 33.4903 8.82029 33.329C8.878 33.1676 8.96827 33.0199 9.0855 32.8949C9.20272 32.7699 9.34439 32.6703 9.50171 32.6024C9.65903 32.5345 9.82864 32.4996 10 32.5H12.5V30H5C4.00544 30 3.05161 29.6049 2.34835 28.9017C1.64509 28.1984 1.25 27.2446 1.25 26.25V15C1.25 14.0054 1.64509 13.0516 2.34835 12.3483C3.05161 11.6451 4.00544 11.25 5 11.25H18.125C18.2908 11.25 18.4497 11.3158 18.5669 11.4331C18.6842 11.5503 18.75 11.7092 18.75 11.875ZM38.75 7.5V32.5C38.75 33.163 38.4866 33.7989 38.0178 34.2678C37.5489 34.7366 36.913 35 36.25 35H23.75C23.087 35 22.4511 34.7366 21.9822 34.2678C21.5134 33.7989 21.25 33.163 21.25 32.5V7.5C21.25 6.83696 21.5134 6.20107 21.9822 5.73223C22.4511 5.26339 23.087 5 23.75 5H36.25C36.913 5 37.5489 5.26339 38.0178 5.73223C38.4866 6.20107 38.75 6.83696 38.75 7.5ZM31.8594 28.3703C31.9106 27.982 31.8389 27.5873 31.6543 27.2418C31.4697 26.8963 31.1816 26.6172 30.8303 26.4439C30.4791 26.2705 30.0823 26.2115 29.6958 26.2751C29.3093 26.3388 28.9524 26.5219 28.6753 26.7988C28.3982 27.0756 28.2147 27.4323 28.1507 27.8188C28.0867 28.2052 28.1453 28.602 28.3183 28.9535C28.4913 29.3049 28.7701 29.5933 29.1154 29.7782C29.4608 29.9631 29.8553 30.0352 30.2437 29.9844C30.6532 29.9308 31.0335 29.7435 31.3256 29.4517C31.6178 29.1598 31.8054 28.7797 31.8594 28.3703ZM35 16.1672C34.972 15.8453 34.8232 15.546 34.5834 15.3295C34.3437 15.113 34.0308 14.9952 33.7078 15H26.2922C25.9697 14.996 25.6576 15.1141 25.4186 15.3306C25.1795 15.547 25.0311 15.8459 25.0031 16.1672C24.9918 16.3382 25.0157 16.5097 25.0734 16.671C25.1311 16.8324 25.2214 16.9801 25.3386 17.1051C25.4558 17.2301 25.5975 17.3297 25.7548 17.3976C25.9122 17.4655 26.0818 17.5004 26.2531 17.5H33.7531C33.9242 17.4999 34.0935 17.4648 34.2504 17.3966C34.4074 17.3285 34.5487 17.2289 34.6656 17.104C34.7825 16.979 34.8725 16.8314 34.93 16.6703C34.9875 16.5091 35.0113 16.3379 35 16.1672ZM35 11.1672C34.972 10.8453 34.8232 10.546 34.5834 10.3295C34.3437 10.113 34.0308 9.99523 33.7078 10H26.2922C25.9692 9.99523 25.6563 10.113 25.4166 10.3295C25.1768 10.546 25.028 10.8453 25 11.1672C24.9886 11.3382 25.0126 11.5097 25.0703 11.671C25.128 11.8324 25.2183 11.9801 25.3355 12.1051C25.4527 12.2301 25.5944 12.3297 25.7517 12.3976C25.909 12.4655 26.0786 12.5004 26.25 12.5H33.75C33.9214 12.5004 34.091 12.4655 34.2483 12.3976C34.4056 12.3297 34.5473 12.2301 34.6645 12.1051C34.7817 11.9801 34.872 11.8324 34.9297 11.671C34.9874 11.5097 35.0114 11.3382 35 11.1672Z" fill="#3968ED"/>
</svg>
