<svg width="25" height="24" viewBox="0 0 25 24" fill="none" xmlns="http://www.w3.org/2000/svg">
<path d="M22.4058 16.4136C22.2386 17.6839 21.6147 18.85 20.6507 19.6939C19.6866 20.5379 18.4483 21.0021 17.167 20.9998C9.72325 20.9998 3.667 14.9436 3.667 7.49981C3.6647 6.21852 4.12889 4.98021 4.97288 4.01615C5.81686 3.05209 6.98291 2.42822 8.25325 2.26106C8.57449 2.22184 8.8998 2.28756 9.18061 2.44841C9.46143 2.60926 9.68269 2.85662 9.81138 3.15356L11.7914 7.57387V7.58512C11.8899 7.81242 11.9306 8.06059 11.9098 8.30744C11.889 8.5543 11.8074 8.79217 11.6723 8.99981C11.6554 9.02512 11.6376 9.04856 11.6189 9.072L9.667 11.3857C10.3692 12.8126 11.8617 14.292 13.3073 14.9961L15.5892 13.0545C15.6116 13.0357 15.6351 13.0181 15.6595 13.002C15.867 12.8636 16.1057 12.7792 16.354 12.7562C16.6023 12.7333 16.8524 12.7727 17.0817 12.8707L17.0939 12.8764L21.5104 14.8554C21.8079 14.9837 22.0559 15.2047 22.2172 15.4856C22.3786 15.7664 22.4448 16.092 22.4058 16.4136Z" fill="#3968ED"/>
</svg>
