<svg width="619" height="743" viewBox="0 0 619 743" fill="none" xmlns="http://www.w3.org/2000/svg">
    <path
        d="M234.66 641.661L369.801 452.604L400.942 496.18L296.941 641.661H359.252L463.193 496.18L400.912 408.998L618.895 103.847L836.909 408.998L774.628 496.18L878.569 641.632H940.88L836.909 496.18L868.049 452.604L1039.38 692.316H914.76L950.981 743H888.67L852.449 692.316H727.827L649.946 583.361L712.257 496.18L618.806 365.422L525.384 496.18L587.665 583.361L509.784 692.316H385.162L348.941 743H286.63L322.851 692.316H198.229L234.45 641.632L234.66 641.661ZM712.466 583.361L754.127 641.632H816.437L743.637 539.755L712.466 583.331V583.361ZM556.704 365.392L618.985 278.211L743.577 452.574L774.717 408.968L618.955 191.029L463.253 408.998L494.393 452.574L556.674 365.422L556.704 365.392ZM483.873 641.661L525.534 583.361L494.393 539.785L421.592 641.632H483.903L483.873 641.661Z"
        fill="#D9D9D9" style="mix-blend-mode:overlay" />
    <path
        d="M22.3542 416.644C31.2003 416.644 38.8212 421.811 42.4373 429.278H115.746L151.967 479.962H275.991L298.375 448.661H168.075L140.64 410.282C139.415 410.491 138.16 410.641 136.845 410.641C124.502 410.641 114.521 400.665 114.521 388.33C114.521 375.995 124.502 366.019 136.845 366.019C149.188 366.019 159.169 375.995 159.169 388.33C159.169 392.213 158.183 395.886 156.42 399.052L178.027 429.308H312.182L334.536 398.007H256.446L220.225 347.323H95.5732C91.9572 354.789 84.3365 359.956 75.4905 359.956C63.1478 359.956 53.166 349.981 53.166 337.646C53.166 325.311 63.1478 315.335 75.4905 315.335C84.3365 315.335 91.9572 320.502 95.5732 327.969H230.207L266.428 378.653H372.222L285.943 499.375H141.955L105.734 448.691H42.4073C38.7913 456.158 31.1704 461.325 22.3243 461.325C9.98169 461.325 0 451.349 0 439.014C0 426.679 9.98169 416.704 22.3243 416.704L22.3542 416.644Z"
        fill="#D9D9D9" style="mix-blend-mode:overlay" />
    <path
        d="M58.1868 568.667C67.0328 568.667 74.6536 573.834 78.2697 581.3H141.238L177.459 530.616H263.589L148.052 692.256H100.833C97.217 699.723 89.5962 704.89 80.7501 704.89C68.4075 704.89 58.4258 694.914 58.4258 682.579C58.4258 670.244 68.4075 660.269 80.7501 660.269C89.5962 660.269 97.217 665.436 100.833 672.902H138.07L225.903 550.03H187.411L151.19 600.714H78.2397C74.6237 608.181 67.0029 613.348 58.1569 613.348C45.8142 613.348 35.8324 603.372 35.8324 591.037C35.8324 578.702 45.8142 568.726 58.1569 568.726L58.1868 568.667Z"
        fill="#D9D9D9" style="mix-blend-mode:overlay" />
    <path
        d="M974.441 530.616H1060.57L1096.79 581.3H1159.76C1163.38 573.834 1171 568.667 1179.84 568.667C1192.19 568.667 1202.17 578.642 1202.17 590.977C1202.17 603.312 1192.19 613.288 1179.84 613.288C1171 613.288 1163.38 608.121 1159.76 600.654H1086.81L1050.59 549.97H1012.1L1099.93 672.843H1137.17C1140.78 665.376 1148.4 660.209 1157.25 660.209C1169.59 660.209 1179.57 670.185 1179.57 682.52C1179.57 694.855 1169.59 704.83 1157.25 704.83C1148.4 704.83 1140.78 699.663 1137.17 692.196H1089.95L974.411 530.556L974.441 530.616Z"
        fill="#D9D9D9" style="mix-blend-mode:overlay" />
    <path
        d="M986.664 309.242C977.818 309.242 970.198 304.075 966.581 296.609H929.344L893.123 347.293H843.394L619.015 33.3315L394.636 347.263H344.907L308.686 296.579H271.448C267.832 304.046 260.212 309.213 251.365 309.213C239.023 309.213 229.041 299.237 229.041 286.902C229.041 274.567 239.023 264.591 251.365 264.591C260.212 264.591 267.832 269.758 271.448 277.225H318.667L354.888 327.909H384.654L619.015 0L853.376 327.909H883.142L919.363 277.225H966.581C970.198 269.758 977.818 264.591 986.664 264.591C999.007 264.591 1008.99 274.567 1008.99 286.902C1008.99 299.237 999.007 309.213 986.664 309.213V309.242Z"
        fill="#D9D9D9" style="mix-blend-mode:overlay" />
    <path
        d="M1195.59 448.631H1132.27L1096.04 499.316H952.057L865.778 378.593H971.572L1007.79 327.909H1142.43C1146.04 320.443 1153.66 315.275 1162.51 315.275C1174.85 315.275 1184.83 325.251 1184.83 337.586C1184.83 349.921 1174.85 359.897 1162.51 359.897C1153.66 359.897 1146.04 354.73 1142.43 347.263H1017.77L981.554 397.947H903.464L925.818 429.218H1059.97L1081.58 398.963C1079.82 395.767 1078.83 392.123 1078.83 388.24C1078.83 375.905 1088.81 365.93 1101.16 365.93C1113.5 365.93 1123.48 375.905 1123.48 388.24C1123.48 400.576 1113.5 410.551 1101.16 410.551C1099.87 410.551 1098.61 410.432 1097.36 410.193L1069.92 448.572H939.625L962.009 479.872H1086.03L1122.25 429.188H1195.59C1199.21 421.721 1206.83 416.554 1215.68 416.554C1228.02 416.554 1238 426.53 1238 438.865C1238 451.2 1228.02 461.176 1215.68 461.176C1206.83 461.176 1199.21 456.009 1195.59 448.542V448.631Z"
        fill="#D9D9D9" style="mix-blend-mode:overlay" />
</svg>