<svg width="157" height="188" viewBox="0 0 157 188" fill="none" xmlns="http://www.w3.org/2000/svg">
    <g opacity="0.05">
        <path
            d="M-96.6898 162.077L-62.5327 114.323L-54.6619 125.33L-80.9483 162.077H-65.1991L-38.9279 125.33L-54.6695 103.308L0.426071 26.2307L55.5292 103.308L39.7876 125.33L66.0588 162.069H81.8079L55.5292 125.33L63.4 114.323L106.704 174.871H75.2061L84.361 187.674H68.6119L59.457 174.871H27.9587L8.27422 147.351L24.0233 125.33L0.403412 92.3017L-23.209 125.33L-7.46736 147.351L-27.1519 174.871H-58.6502L-67.8051 187.674H-83.5542L-74.3993 174.871H-105.898L-96.7427 162.069L-96.6898 162.077ZM24.0762 147.351L34.6059 162.069H50.355L31.9546 136.336L24.0762 147.343V147.351ZM-15.2928 92.2941L0.44873 70.273L31.9394 114.315L39.8102 103.301L0.441177 48.2519L-38.9128 103.308L-31.042 114.315L-15.3004 92.3017L-15.2928 92.2941ZM-33.7009 162.077L-23.1712 147.351L-31.042 136.344L-49.4424 162.069H-33.6933L-33.7009 162.077Z"
            fill="#0A0A0B" />
        <path
            d="M-150.35 105.24C-148.114 105.24 -146.188 106.545 -145.274 108.431H-126.745L-117.59 121.233H-86.2433L-80.5857 113.327H-113.519L-120.453 103.633C-120.763 103.686 -121.08 103.723 -121.413 103.723C-124.532 103.723 -127.055 101.204 -127.055 98.088C-127.055 94.9723 -124.532 92.4526 -121.413 92.4526C-118.293 92.4526 -115.77 94.9723 -115.77 98.088C-115.77 99.0687 -116.019 99.9966 -116.465 100.796L-111.004 108.438H-77.0959L-71.4459 100.532H-91.1833L-100.338 87.73H-131.844C-132.758 89.616 -134.684 90.9211 -136.92 90.9211C-140.04 90.9211 -142.562 88.4014 -142.562 85.2857C-142.562 82.17 -140.04 79.6503 -136.92 79.6503C-134.684 79.6503 -132.758 80.9554 -131.844 82.8414H-97.8153L-88.6604 95.6437H-61.9209L-83.728 126.137H-120.121L-129.276 113.335H-145.282C-146.196 115.221 -148.122 116.526 -150.358 116.526C-153.477 116.526 -156 114.006 -156 110.89C-156 107.775 -153.477 105.255 -150.358 105.255L-150.35 105.24Z"
            fill="#0A0A0B" />
        <path
            d="M-141.293 143.639C-139.058 143.639 -137.132 144.944 -136.218 146.83H-120.302L-111.147 134.028H-89.378L-118.58 174.856H-130.515C-131.429 176.742 -133.355 178.048 -135.591 178.048C-138.71 178.048 -141.233 175.528 -141.233 172.412C-141.233 169.296 -138.71 166.777 -135.591 166.777C-133.355 166.777 -131.429 168.082 -130.515 169.968H-121.103L-98.903 138.932H-108.632L-117.787 151.734H-136.225C-137.139 153.62 -139.065 154.925 -141.301 154.925C-144.421 154.925 -146.944 152.405 -146.944 149.29C-146.944 146.174 -144.421 143.654 -141.301 143.654L-141.293 143.639Z"
            fill="#0A0A0B" />
        <path
            d="M90.2906 134.028H112.06L121.215 146.83H137.13C138.044 144.944 139.97 143.639 142.206 143.639C145.326 143.639 147.849 146.159 147.849 149.274C147.849 152.39 145.326 154.91 142.206 154.91C139.97 154.91 138.044 153.605 137.13 151.719H118.692L109.537 138.916H99.808L122.008 169.953H131.42C132.334 168.067 134.26 166.762 136.496 166.762C139.615 166.762 142.138 169.281 142.138 172.397C142.138 175.513 139.615 178.032 136.496 178.032C134.26 178.032 132.334 176.727 131.42 174.841H119.485L90.283 134.013L90.2906 134.028Z"
            fill="#0A0A0B" />
        <path
            d="M93.38 78.1113C91.1441 78.1113 89.218 76.8062 88.304 74.9201H78.8923L69.7374 87.7224H57.1683L0.456299 8.41918L-56.2557 87.7149H-68.8248L-77.9797 74.9126H-87.3914C-88.3054 76.7986 -90.2316 78.1037 -92.4674 78.1037C-95.587 78.1037 -98.1099 75.584 -98.1099 72.4683C-98.1099 69.3526 -95.587 66.8329 -92.4674 66.8329C-90.2316 66.8329 -88.3054 68.138 -87.3914 70.024H-75.4568L-66.3019 82.8263H-58.7786L0.456299 0L59.6912 82.8263H67.2145L76.3694 70.024H88.304C89.218 68.138 91.1441 66.8329 93.38 66.8329C96.4996 66.8329 99.0225 69.3526 99.0225 72.4683C99.0225 75.584 96.4996 78.1037 93.38 78.1037V78.1113Z"
            fill="#0A0A0B" />
        <path
            d="M146.187 113.319H130.181L121.026 126.122H84.633L62.8259 95.6286H89.5654L98.7203 82.8263H132.749C133.663 80.9403 135.589 79.6352 137.825 79.6352C140.945 79.6352 143.468 82.1549 143.468 85.2706C143.468 88.3863 140.945 90.906 137.825 90.906C135.589 90.906 133.663 89.6009 132.749 87.7149H101.243L92.0883 100.517H72.3509L78.001 108.416H111.909L117.37 100.774C116.924 99.9664 116.675 99.0461 116.675 98.0653C116.675 94.9496 119.198 92.4299 122.318 92.4299C125.437 92.4299 127.96 94.9496 127.96 98.0653C127.96 101.181 125.437 103.701 122.318 103.701C121.993 103.701 121.676 103.671 121.358 103.61L114.424 113.304H81.4907L87.1483 121.211H118.496L127.65 108.408H146.187C147.101 106.522 149.027 105.217 151.263 105.217C154.382 105.217 156.905 107.737 156.905 110.853C156.905 113.968 154.382 116.488 151.263 116.488C149.027 116.488 147.101 115.183 146.187 113.297V113.319Z"
            fill="#0A0A0B" />
    </g>
</svg>