<svg width="406" height="538" viewBox="0 0 406 538" fill="none" xmlns="http://www.w3.org/2000/svg">
    <g clip-path="url(#clip0_2122_6883)">
        <path
            d="M167.922 651.981L131.174 600.512L62.4368 504.189L30.8125 459.882L-0.781616 504.159L30.8427 548.466L67.9854 600.512L104.734 651.981H41.5156L4.76703 600.512L-0.751282 592.773L-32.3453 548.466L-63.9393 504.159L-32.3453 459.882L-0.751282 415.575L-32.3453 371.298L-63.9393 326.991L-95.5334 282.714L-127.128 238.407L-158.721 194.13L-190.316 149.823L-221.91 105.516L-253.504 149.823L-285.128 194.1L-316.722 238.407L-348.316 282.684L-379.91 326.991L-411.504 371.298L-443.098 415.575L-411.504 459.852L-379.91 504.159L-411.504 548.466L-443.098 592.743L-448.616 600.482L-485.365 651.951H-548.583L-511.835 600.482L-474.692 548.436L-443.098 504.159L-474.692 459.882L-506.286 504.159L-575.023 600.482L-611.771 651.951L-648.52 703.45H-522.083L-558.832 754.95H-495.613L-458.865 703.45H-332.428L-316.631 681.297L-295.679 651.951L-285.007 637.02L-258.931 600.482L-253.413 592.743L-285.007 548.466L-316.631 504.159L-285.037 459.882L-253.413 415.575L-221.819 371.298L-190.225 415.575L-158.63 459.882L-127.036 504.159L-158.63 548.436L-190.225 592.743L-184.706 600.482L-158.63 637.02L-147.958 651.951L-127.006 681.297L-111.209 703.45H15.2277L51.9762 754.95H115.195L78.446 703.45H204.883L168.134 651.951L167.922 651.981ZM-316.843 592.743L-322.362 600.482L-348.437 637.02L-359.11 651.951H-422.329L-411.656 636.99L-385.58 600.451L-380.062 592.713L-348.468 548.436L-316.843 592.713V592.743ZM-158.812 371.268L-190.406 326.961L-222.001 282.684L-253.595 326.961L-285.189 371.268L-316.813 415.545L-348.407 459.852L-380.001 415.545L-348.407 371.268L-285.189 282.684L-253.595 238.407L-221.97 194.1L-190.376 238.407L-158.782 282.684L-127.188 326.991L-95.594 371.298L-64 415.575L-95.594 459.852L-127.188 415.575L-158.782 371.298L-158.812 371.268ZM-84.9212 651.981L-95.594 637.02L-121.67 600.482L-127.188 592.743L-95.594 548.466L-64 592.743L-58.4816 600.482L-32.4059 637.02L-21.7332 651.951H-84.9515L-84.9212 651.981Z"
            fill="#3968ED" />
        <path
            d="M383.32 423.347C374.346 423.347 366.614 428.597 362.945 436.184H288.569L251.82 487.683H125.99L103.28 455.879H235.477L263.312 416.883C264.555 417.095 265.828 417.247 267.162 417.247C279.685 417.247 289.812 407.111 289.812 394.577C289.812 382.044 279.685 371.908 267.162 371.908C254.64 371.908 244.513 382.044 244.513 394.577C244.513 398.522 245.513 402.255 247.302 405.472L225.381 436.214H89.2715L66.5917 404.41H145.819L182.568 352.91H309.035C312.704 360.497 320.436 365.747 329.41 365.747C341.933 365.747 352.06 355.611 352.06 343.078C352.06 330.544 341.933 320.408 329.41 320.408C320.436 320.408 312.704 325.658 309.035 333.245H172.441L135.692 384.745H28.3574L115.893 507.409H261.978L298.726 455.909H362.975C366.644 463.496 374.376 468.746 383.351 468.746C395.873 468.746 406 458.61 406 446.077C406 433.543 395.873 423.407 383.351 423.407L383.32 423.347Z"
            fill="#3968ED" />
        <path
            d="M-595.035 314.217C-586.06 314.217 -578.328 308.967 -574.66 301.38H-536.88L-500.132 352.88H-449.678L-222.031 33.8677L5.61536 352.849H56.0688L92.8174 301.35H130.597C134.266 308.937 141.997 314.187 150.972 314.187C163.495 314.187 173.622 304.051 173.622 291.517C173.622 278.984 163.495 268.848 150.972 268.848C141.997 268.848 134.266 274.098 130.597 281.685H82.6903L45.9418 333.184H15.7426L-222.031 0L-459.805 333.184H-490.005L-526.753 281.685H-574.66C-578.328 274.098 -586.06 268.848 -595.035 268.848C-607.557 268.848 -617.685 278.984 -617.685 291.517C-617.685 304.051 -607.557 314.187 -595.035 314.187V314.217Z"
            fill="#3968ED" />
    </g>
    <defs>
        <clipPath id="clip0_2122_6883">
            <rect width="1256" height="754.95" fill="white" transform="translate(-850)" />
        </clipPath>
    </defs>
</svg>