<svg width="20" height="20" viewBox="0 0 20 20" fill="none" xmlns="http://www.w3.org/2000/svg">
<path d="M0.00401298 19.999L1.35588 15.0315C0.465104 13.5045 -0.00289034 11.7678 1.34309e-05 9.99997C1.34309e-05 4.47753 4.47656 0.000976562 9.99901 0.000976562C15.5214 0.000976562 19.998 4.47753 19.998 9.99997C19.998 15.5224 15.5214 19.999 9.99901 19.999C8.23196 20.0018 6.49602 19.5342 4.96951 18.6441L0.00401298 19.999ZM6.39037 5.30844C6.26124 5.31646 6.13507 5.35047 6.01941 5.40843C5.91094 5.46986 5.81192 5.54664 5.72544 5.63641C5.60545 5.7494 5.53746 5.84739 5.46446 5.94238C5.09491 6.42333 4.89613 7.01369 4.89952 7.62021C4.90152 8.11016 5.02951 8.58711 5.22949 9.03307C5.63845 9.93498 6.31138 10.8899 7.20029 11.7748C7.41427 11.9878 7.62325 12.2017 7.84822 12.4007C8.9515 13.3721 10.2662 14.0726 11.6878 14.4465L12.2568 14.5335C12.4418 14.5435 12.6267 14.5295 12.8127 14.5205C13.1039 14.5055 13.3883 14.4266 13.6456 14.2895C13.8116 14.2015 13.8896 14.1575 14.0286 14.0696C14.0286 14.0696 14.0716 14.0416 14.1536 13.9796C14.2886 13.8796 14.3716 13.8086 14.4836 13.6916C14.5665 13.6056 14.6385 13.5046 14.6935 13.3896C14.7715 13.2266 14.8495 12.9157 14.8815 12.6567C14.9055 12.4587 14.8985 12.3507 14.8955 12.2837C14.8915 12.1768 14.8025 12.0658 14.7055 12.0188L14.1236 11.7578C14.1236 11.7578 13.2537 11.3788 12.7227 11.1369C12.6668 11.1125 12.6068 11.0986 12.5457 11.0959C12.4773 11.0888 12.4082 11.0965 12.343 11.1184C12.2778 11.1403 12.2181 11.1759 12.1678 11.2228V11.2208C12.1628 11.2208 12.0958 11.2778 11.3729 12.1538C11.3314 12.2095 11.2742 12.2516 11.2087 12.2748C11.1432 12.2979 11.0722 12.3011 11.0049 12.2837C10.9398 12.2663 10.8759 12.2443 10.8139 12.2177C10.6899 12.1658 10.6469 12.1458 10.5619 12.1088L10.5569 12.1068C9.98492 11.857 9.45529 11.5197 8.98711 11.1069C8.86112 10.9969 8.74413 10.8769 8.62414 10.7609C8.23076 10.3842 7.88793 9.95799 7.60425 9.49302L7.54525 9.39803C7.50288 9.3342 7.46862 9.26535 7.44326 9.19305C7.40527 9.04607 7.50426 8.92808 7.50426 8.92808C7.50426 8.92808 7.74723 8.6621 7.86022 8.51812C7.9543 8.39845 8.04208 8.27396 8.12319 8.14516C8.24118 7.95518 8.27818 7.7602 8.21619 7.60921C7.93621 6.92528 7.64624 6.24435 7.34827 5.56842C7.28928 5.43443 7.1143 5.33844 6.95531 5.31944C6.90132 5.31344 6.84732 5.30744 6.79333 5.30344C6.65905 5.29677 6.52449 5.29911 6.39037 5.30844Z" fill="white"/>
</svg>
